<?xml version="1.0" encoding="UTF-8" standalone="no"?>
<!DOCTYPE svg PUBLIC "-//W3C//DTD SVG 1.1//EN"
 "http://www.w3.org/Graphics/SVG/1.1/DTD/svg11.dtd">
<!-- Generated by graphviz version 2.43.0 (0)
 -->
<!-- Title: G Pages: 1 -->
<svg width="1385pt" height="667pt"
 viewBox="0.00 0.00 1385.20 667.20" xmlns="http://www.w3.org/2000/svg" xmlns:xlink="http://www.w3.org/1999/xlink">
<g id="graph0" class="graph" transform="scale(1 1) rotate(0) translate(21.6 645.6)">
<title>G</title>
<polygon fill="#111111" stroke="transparent" points="-21.6,21.6 -21.6,-645.6 1363.6,-645.6 1363.6,21.6 -21.6,21.6"/>
<!-- ../knexfile.ts -->
<g id="node1" class="node">
<title>../knexfile.ts</title>
<path fill="none" stroke="#cfffac" d="M1334.33,-345C1334.33,-345 1261.67,-345 1261.67,-345 1257.83,-345 1254,-341.17 1254,-337.33 1254,-337.33 1254,-329.67 1254,-329.67 1254,-325.83 1257.83,-322 1261.67,-322 1261.67,-322 1334.33,-322 1334.33,-322 1338.17,-322 1342,-325.83 1342,-329.67 1342,-329.67 1342,-337.33 1342,-337.33 1342,-341.17 1338.17,-345 1334.33,-345"/>
<text text-anchor="middle" x="1298" y="-329.8" font-family="Arial" font-size="14.00" fill="#cfffac">../knexfile.ts</text>
</g>
<!-- api/admin/model.ts -->
<g id="node2" class="node">
<title>api/admin/model.ts</title>
<path fill="none" stroke="#c6c5fe" d="M1050.83,-125C1050.83,-125 935.17,-125 935.17,-125 931.33,-125 927.5,-121.17 927.5,-117.33 927.5,-117.33 927.5,-109.67 927.5,-109.67 927.5,-105.83 931.33,-102 935.17,-102 935.17,-102 1050.83,-102 1050.83,-102 1054.67,-102 1058.5,-105.83 1058.5,-109.67 1058.5,-109.67 1058.5,-117.33 1058.5,-117.33 1058.5,-121.17 1054.67,-125 1050.83,-125"/>
<text text-anchor="middle" x="993" y="-109.8" font-family="Arial" font-size="14.00" fill="#c6c5fe">api/admin/model.ts</text>
</g>
<!-- dbConfig.ts -->
<g id="node3" class="node">
<title>dbConfig.ts</title>
<path fill="none" stroke="#c6c5fe" d="M1210.33,-345C1210.33,-345 1140.67,-345 1140.67,-345 1136.83,-345 1133,-341.17 1133,-337.33 1133,-337.33 1133,-329.67 1133,-329.67 1133,-325.83 1136.83,-322 1140.67,-322 1140.67,-322 1210.33,-322 1210.33,-322 1214.17,-322 1218,-325.83 1218,-329.67 1218,-329.67 1218,-337.33 1218,-337.33 1218,-341.17 1214.17,-345 1210.33,-345"/>
<text text-anchor="middle" x="1175.5" y="-329.8" font-family="Arial" font-size="14.00" fill="#c6c5fe">dbConfig.ts</text>
</g>
<!-- api/admin/model.ts&#45;&gt;dbConfig.ts -->
<g id="edge1" class="edge">
<title>api/admin/model.ts&#45;&gt;dbConfig.ts</title>
<path fill="none" stroke="#757575" d="M1049.95,-125.05C1066.69,-130.74 1084.02,-139.15 1097,-151.5 1144.09,-196.33 1163.91,-274.39 1171.05,-312.01"/>
<polygon fill="#757575" stroke="#757575" points="1167.61,-312.66 1172.8,-321.9 1174.5,-311.44 1167.61,-312.66"/>
</g>
<!-- dbConfig.ts&#45;&gt;../knexfile.ts -->
<g id="edge52" class="edge">
<title>dbConfig.ts&#45;&gt;../knexfile.ts</title>
<path fill="none" stroke="#757575" d="M1218.31,-333.5C1226.43,-333.5 1235.04,-333.5 1243.47,-333.5"/>
<polygon fill="#757575" stroke="#757575" points="1243.63,-337 1253.63,-333.5 1243.63,-330 1243.63,-337"/>
</g>
<!-- api/admin/routes.ts -->
<g id="node4" class="node">
<title>api/admin/routes.ts</title>
<path fill="none" stroke="#c6c5fe" d="M350.83,-146C350.83,-146 235.17,-146 235.17,-146 231.33,-146 227.5,-142.17 227.5,-138.33 227.5,-138.33 227.5,-130.67 227.5,-130.67 227.5,-126.83 231.33,-123 235.17,-123 235.17,-123 350.83,-123 350.83,-123 354.67,-123 358.5,-126.83 358.5,-130.67 358.5,-130.67 358.5,-138.33 358.5,-138.33 358.5,-142.17 354.67,-146 350.83,-146"/>
<text text-anchor="middle" x="293" y="-130.8" font-family="Arial" font-size="14.00" fill="#c6c5fe">api/admin/routes.ts</text>
</g>
<!-- api/admin/routes.ts&#45;&gt;api/admin/model.ts -->
<g id="edge2" class="edge">
<title>api/admin/routes.ts&#45;&gt;api/admin/model.ts</title>
<path fill="none" stroke="#757575" d="M358.5,-123.29C381.89,-119.73 408.56,-116.27 433,-114.5 606.01,-101.96 809.92,-106.44 917.25,-110.29"/>
<polygon fill="#757575" stroke="#757575" points="917.21,-113.79 927.33,-110.66 917.47,-106.8 917.21,-113.79"/>
</g>
<!-- api/words/utils.ts -->
<g id="node5" class="node">
<title>api/words/utils.ts</title>
<path fill="none" stroke="#cfffac" d="M591.83,-147C591.83,-147 491.17,-147 491.17,-147 487.33,-147 483.5,-143.17 483.5,-139.33 483.5,-139.33 483.5,-131.67 483.5,-131.67 483.5,-127.83 487.33,-124 491.17,-124 491.17,-124 591.83,-124 591.83,-124 595.67,-124 599.5,-127.83 599.5,-131.67 599.5,-131.67 599.5,-139.33 599.5,-139.33 599.5,-143.17 595.67,-147 591.83,-147"/>
<text text-anchor="middle" x="541.5" y="-131.8" font-family="Arial" font-size="14.00" fill="#cfffac">api/words/utils.ts</text>
</g>
<!-- api/admin/routes.ts&#45;&gt;api/words/utils.ts -->
<g id="edge3" class="edge">
<title>api/admin/routes.ts&#45;&gt;api/words/utils.ts</title>
<path fill="none" stroke="#757575" d="M358.76,-134.76C393.95,-134.91 437.41,-135.08 473.01,-135.23"/>
<polygon fill="#757575" stroke="#757575" points="473.29,-138.73 483.3,-135.27 473.32,-131.73 473.29,-138.73"/>
</g>
<!-- api/auth/routes.ts -->
<g id="node6" class="node">
<title>api/auth/routes.ts</title>
<path fill="none" stroke="#c6c5fe" d="M345.33,-467C345.33,-467 240.67,-467 240.67,-467 236.83,-467 233,-463.17 233,-459.33 233,-459.33 233,-451.67 233,-451.67 233,-447.83 236.83,-444 240.67,-444 240.67,-444 345.33,-444 345.33,-444 349.17,-444 353,-447.83 353,-451.67 353,-451.67 353,-459.33 353,-459.33 353,-463.17 349.17,-467 345.33,-467"/>
<text text-anchor="middle" x="293" y="-451.8" font-family="Arial" font-size="14.00" fill="#c6c5fe">api/auth/routes.ts</text>
</g>
<!-- api/auth/utils.ts -->
<g id="node7" class="node">
<title>api/auth/utils.ts</title>
<path fill="none" stroke="#c6c5fe" d="M587.33,-467C587.33,-467 495.67,-467 495.67,-467 491.83,-467 488,-463.17 488,-459.33 488,-459.33 488,-451.67 488,-451.67 488,-447.83 491.83,-444 495.67,-444 495.67,-444 587.33,-444 587.33,-444 591.17,-444 595,-447.83 595,-451.67 595,-451.67 595,-459.33 595,-459.33 595,-463.17 591.17,-467 587.33,-467"/>
<text text-anchor="middle" x="541.5" y="-451.8" font-family="Arial" font-size="14.00" fill="#c6c5fe">api/auth/utils.ts</text>
</g>
<!-- api/auth/routes.ts&#45;&gt;api/auth/utils.ts -->
<g id="edge4" class="edge">
<title>api/auth/routes.ts&#45;&gt;api/auth/utils.ts</title>
<path fill="none" stroke="#757575" d="M353.04,-455.5C390.7,-455.5 439.45,-455.5 477.79,-455.5"/>
<polygon fill="#757575" stroke="#757575" points="477.81,-459 487.81,-455.5 477.81,-452 477.81,-459"/>
</g>
<!-- api/player/model.ts -->
<g id="node8" class="node">
<title>api/player/model.ts</title>
<path fill="none" stroke="#c6c5fe" d="M827.33,-508C827.33,-508 711.67,-508 711.67,-508 707.83,-508 704,-504.17 704,-500.33 704,-500.33 704,-492.67 704,-492.67 704,-488.83 707.83,-485 711.67,-485 711.67,-485 827.33,-485 827.33,-485 831.17,-485 835,-488.83 835,-492.67 835,-492.67 835,-500.33 835,-500.33 835,-504.17 831.17,-508 827.33,-508"/>
<text text-anchor="middle" x="769.5" y="-492.8" font-family="Arial" font-size="14.00" fill="#c6c5fe">api/player/model.ts</text>
</g>
<!-- api/auth/routes.ts&#45;&gt;api/player/model.ts -->
<g id="edge5" class="edge">
<title>api/auth/routes.ts&#45;&gt;api/player/model.ts</title>
<path fill="none" stroke="#757575" d="M353.03,-465.62C377.68,-469.54 406.66,-473.73 433,-476.5 522.28,-485.89 625.43,-491.21 693.52,-493.97"/>
<polygon fill="#757575" stroke="#757575" points="693.6,-497.48 703.73,-494.38 693.87,-490.48 693.6,-497.48"/>
</g>
<!-- api/auth/utils.ts&#45;&gt;api/player/model.ts -->
<g id="edge7" class="edge">
<title>api/auth/utils.ts&#45;&gt;api/player/model.ts</title>
<path fill="none" stroke="#757575" d="M595.2,-465.06C624.87,-470.44 662.38,-477.25 694.91,-483.15"/>
<polygon fill="#757575" stroke="#757575" points="694.37,-486.61 704.83,-484.95 695.62,-479.72 694.37,-486.61"/>
</g>
<!-- api/auth/secrets.ts -->
<g id="node9" class="node">
<title>api/auth/secrets.ts</title>
<path fill="none" stroke="#cfffac" d="M824.83,-467C824.83,-467 714.17,-467 714.17,-467 710.33,-467 706.5,-463.17 706.5,-459.33 706.5,-459.33 706.5,-451.67 706.5,-451.67 706.5,-447.83 710.33,-444 714.17,-444 714.17,-444 824.83,-444 824.83,-444 828.67,-444 832.5,-447.83 832.5,-451.67 832.5,-451.67 832.5,-459.33 832.5,-459.33 832.5,-463.17 828.67,-467 824.83,-467"/>
<text text-anchor="middle" x="769.5" y="-451.8" font-family="Arial" font-size="14.00" fill="#cfffac">api/auth/secrets.ts</text>
</g>
<!-- api/auth/utils.ts&#45;&gt;api/auth/secrets.ts -->
<g id="edge6" class="edge">
<title>api/auth/utils.ts&#45;&gt;api/auth/secrets.ts</title>
<path fill="none" stroke="#757575" d="M595.2,-455.5C625.34,-455.5 663.58,-455.5 696.46,-455.5"/>
<polygon fill="#757575" stroke="#757575" points="696.48,-459 706.48,-455.5 696.48,-452 696.48,-459"/>
</g>
<!-- api/rounds/model.ts -->
<g id="node10" class="node">
<title>api/rounds/model.ts</title>
<path fill="none" stroke="#c6c5fe" d="M829.33,-426C829.33,-426 709.67,-426 709.67,-426 705.83,-426 702,-422.17 702,-418.33 702,-418.33 702,-410.67 702,-410.67 702,-406.83 705.83,-403 709.67,-403 709.67,-403 829.33,-403 829.33,-403 833.17,-403 837,-406.83 837,-410.67 837,-410.67 837,-418.33 837,-418.33 837,-422.17 833.17,-426 829.33,-426"/>
<text text-anchor="middle" x="769.5" y="-410.8" font-family="Arial" font-size="14.00" fill="#c6c5fe">api/rounds/model.ts</text>
</g>
<!-- api/auth/utils.ts&#45;&gt;api/rounds/model.ts -->
<g id="edge8" class="edge">
<title>api/auth/utils.ts&#45;&gt;api/rounds/model.ts</title>
<path fill="none" stroke="#757575" d="M595.2,-445.94C624.87,-440.56 662.38,-433.75 694.91,-427.85"/>
<polygon fill="#757575" stroke="#757575" points="695.62,-431.28 704.83,-426.05 694.37,-424.39 695.62,-431.28"/>
</g>
<!-- api/userRounds/model.ts -->
<g id="node11" class="node">
<title>api/userRounds/model.ts</title>
<path fill="none" stroke="#c6c5fe" d="M845.33,-346C845.33,-346 693.67,-346 693.67,-346 689.83,-346 686,-342.17 686,-338.33 686,-338.33 686,-330.67 686,-330.67 686,-326.83 689.83,-323 693.67,-323 693.67,-323 845.33,-323 845.33,-323 849.17,-323 853,-326.83 853,-330.67 853,-330.67 853,-338.33 853,-338.33 853,-342.17 849.17,-346 845.33,-346"/>
<text text-anchor="middle" x="769.5" y="-330.8" font-family="Arial" font-size="14.00" fill="#c6c5fe">api/userRounds/model.ts</text>
</g>
<!-- api/auth/utils.ts&#45;&gt;api/userRounds/model.ts -->
<g id="edge9" class="edge">
<title>api/auth/utils.ts&#45;&gt;api/userRounds/model.ts</title>
<path fill="none" stroke="#757575" d="M595.22,-452.73C613.49,-449.99 633.5,-444.88 650,-435.5 671.08,-423.51 668.08,-410.84 686,-394.5 703.33,-378.69 724.82,-363.18 741.52,-351.89"/>
<polygon fill="#757575" stroke="#757575" points="743.86,-354.53 750.25,-346.07 739.98,-348.7 743.86,-354.53"/>
</g>
<!-- api/player/model.ts&#45;&gt;dbConfig.ts -->
<g id="edge22" class="edge">
<title>api/player/model.ts&#45;&gt;dbConfig.ts</title>
<path fill="none" stroke="#757575" d="M797.83,-508.17C857.73,-531.77 1002.74,-577.81 1097,-515.5 1151.99,-479.15 1168.09,-394.99 1172.7,-355.15"/>
<polygon fill="#757575" stroke="#757575" points="1176.19,-355.47 1173.72,-345.16 1169.22,-354.76 1176.19,-355.47"/>
</g>
<!-- api/player/utils.ts -->
<g id="node24" class="node">
<title>api/player/utils.ts</title>
<path fill="none" stroke="#cfffac" d="M1043.83,-506C1043.83,-506 942.17,-506 942.17,-506 938.33,-506 934.5,-502.17 934.5,-498.33 934.5,-498.33 934.5,-490.67 934.5,-490.67 934.5,-486.83 938.33,-483 942.17,-483 942.17,-483 1043.83,-483 1043.83,-483 1047.67,-483 1051.5,-486.83 1051.5,-490.67 1051.5,-490.67 1051.5,-498.33 1051.5,-498.33 1051.5,-502.17 1047.67,-506 1043.83,-506"/>
<text text-anchor="middle" x="993" y="-490.8" font-family="Arial" font-size="14.00" fill="#cfffac">api/player/utils.ts</text>
</g>
<!-- api/player/model.ts&#45;&gt;api/player/utils.ts -->
<g id="edge21" class="edge">
<title>api/player/model.ts&#45;&gt;api/player/utils.ts</title>
<path fill="none" stroke="#757575" d="M835.16,-495.92C863.14,-495.66 895.89,-495.37 924.21,-495.11"/>
<polygon fill="#757575" stroke="#757575" points="924.46,-498.61 934.42,-495.02 924.39,-491.61 924.46,-498.61"/>
</g>
<!-- api/rounds/model.ts&#45;&gt;dbConfig.ts -->
<g id="edge27" class="edge">
<title>api/rounds/model.ts&#45;&gt;dbConfig.ts</title>
<path fill="none" stroke="#757575" d="M823.92,-426.02C844.19,-429.85 867.56,-433.62 889,-435.5 981.09,-443.6 1014.19,-476.58 1097,-435.5 1130.97,-418.65 1154.07,-378.99 1165.71,-354.39"/>
<polygon fill="#757575" stroke="#757575" points="1168.94,-355.73 1169.87,-345.18 1162.56,-352.85 1168.94,-355.73"/>
</g>
<!-- api/rounds/utils.ts -->
<g id="node28" class="node">
<title>api/rounds/utils.ts</title>
<path fill="none" stroke="#cfffac" d="M1046.33,-426C1046.33,-426 939.67,-426 939.67,-426 935.83,-426 932,-422.17 932,-418.33 932,-418.33 932,-410.67 932,-410.67 932,-406.83 935.83,-403 939.67,-403 939.67,-403 1046.33,-403 1046.33,-403 1050.17,-403 1054,-406.83 1054,-410.67 1054,-410.67 1054,-418.33 1054,-418.33 1054,-422.17 1050.17,-426 1046.33,-426"/>
<text text-anchor="middle" x="993" y="-410.8" font-family="Arial" font-size="14.00" fill="#cfffac">api/rounds/utils.ts</text>
</g>
<!-- api/rounds/model.ts&#45;&gt;api/rounds/utils.ts -->
<g id="edge26" class="edge">
<title>api/rounds/model.ts&#45;&gt;api/rounds/utils.ts</title>
<path fill="none" stroke="#757575" d="M837.26,-414.5C863.91,-414.5 894.63,-414.5 921.64,-414.5"/>
<polygon fill="#757575" stroke="#757575" points="921.79,-418 931.79,-414.5 921.79,-411 921.79,-418"/>
</g>
<!-- api/userRounds/model.ts&#45;&gt;dbConfig.ts -->
<g id="edge30" class="edge">
<title>api/userRounds/model.ts&#45;&gt;dbConfig.ts</title>
<path fill="none" stroke="#757575" d="M853.23,-334.3C934.15,-334.09 1054.84,-333.8 1122.93,-333.63"/>
<polygon fill="#757575" stroke="#757575" points="1122.99,-337.13 1132.98,-333.6 1122.97,-330.13 1122.99,-337.13"/>
</g>
<!-- api/played/model.ts -->
<g id="node22" class="node">
<title>api/played/model.ts</title>
<path fill="none" stroke="#c6c5fe" d="M1052.33,-305C1052.33,-305 933.67,-305 933.67,-305 929.83,-305 926,-301.17 926,-297.33 926,-297.33 926,-289.67 926,-289.67 926,-285.83 929.83,-282 933.67,-282 933.67,-282 1052.33,-282 1052.33,-282 1056.17,-282 1060,-285.83 1060,-289.67 1060,-289.67 1060,-297.33 1060,-297.33 1060,-301.17 1056.17,-305 1052.33,-305"/>
<text text-anchor="middle" x="993" y="-289.8" font-family="Arial" font-size="14.00" fill="#c6c5fe">api/played/model.ts</text>
</g>
<!-- api/userRounds/model.ts&#45;&gt;api/played/model.ts -->
<g id="edge29" class="edge">
<title>api/userRounds/model.ts&#45;&gt;api/played/model.ts</title>
<path fill="none" stroke="#757575" d="M832.79,-322.97C859.8,-317.97 891.6,-312.08 919.65,-306.89"/>
<polygon fill="#757575" stroke="#757575" points="920.6,-310.28 929.79,-305.01 919.32,-303.39 920.6,-310.28"/>
</g>
<!-- api/clever/routes.ts -->
<g id="node12" class="node">
<title>api/clever/routes.ts</title>
<path fill="none" stroke="#c6c5fe" d="M350.33,-64C350.33,-64 235.67,-64 235.67,-64 231.83,-64 228,-60.17 228,-56.33 228,-56.33 228,-48.67 228,-48.67 228,-44.83 231.83,-41 235.67,-41 235.67,-41 350.33,-41 350.33,-41 354.17,-41 358,-44.83 358,-48.67 358,-48.67 358,-56.33 358,-56.33 358,-60.17 354.17,-64 350.33,-64"/>
<text text-anchor="middle" x="293" y="-48.8" font-family="Arial" font-size="14.00" fill="#c6c5fe">api/clever/routes.ts</text>
</g>
<!-- api/middleware/cleverRequired.ts -->
<g id="node13" class="node">
<title>api/middleware/cleverRequired.ts</title>
<path fill="none" stroke="#cfffac" d="M642.33,-26C642.33,-26 440.67,-26 440.67,-26 436.83,-26 433,-22.17 433,-18.33 433,-18.33 433,-10.67 433,-10.67 433,-6.83 436.83,-3 440.67,-3 440.67,-3 642.33,-3 642.33,-3 646.17,-3 650,-6.83 650,-10.67 650,-10.67 650,-18.33 650,-18.33 650,-22.17 646.17,-26 642.33,-26"/>
<text text-anchor="middle" x="541.5" y="-10.8" font-family="Arial" font-size="14.00" fill="#cfffac">api/middleware/cleverRequired.ts</text>
</g>
<!-- api/clever/routes.ts&#45;&gt;api/middleware/cleverRequired.ts -->
<g id="edge10" class="edge">
<title>api/clever/routes.ts&#45;&gt;api/middleware/cleverRequired.ts</title>
<path fill="none" stroke="#757575" d="M358.12,-42.62C387.86,-38.03 423.61,-32.52 455.55,-27.6"/>
<polygon fill="#757575" stroke="#757575" points="456.42,-31 465.77,-26.02 455.36,-24.08 456.42,-31"/>
</g>
<!-- api/definitionReactions/model.ts -->
<g id="node14" class="node">
<title>api/definitionReactions/model.ts</title>
<path fill="none" stroke="#c6c5fe" d="M1089.33,-385C1089.33,-385 896.67,-385 896.67,-385 892.83,-385 889,-381.17 889,-377.33 889,-377.33 889,-369.67 889,-369.67 889,-365.83 892.83,-362 896.67,-362 896.67,-362 1089.33,-362 1089.33,-362 1093.17,-362 1097,-365.83 1097,-369.67 1097,-369.67 1097,-377.33 1097,-377.33 1097,-381.17 1093.17,-385 1089.33,-385"/>
<text text-anchor="middle" x="993" y="-369.8" font-family="Arial" font-size="14.00" fill="#c6c5fe">api/definitionReactions/model.ts</text>
</g>
<!-- api/definitionReactions/model.ts&#45;&gt;dbConfig.ts -->
<g id="edge11" class="edge">
<title>api/definitionReactions/model.ts&#45;&gt;dbConfig.ts</title>
<path fill="none" stroke="#757575" d="M1046.21,-361.93C1070.35,-356.58 1098.94,-350.24 1122.99,-344.91"/>
<polygon fill="#757575" stroke="#757575" points="1123.99,-348.28 1133,-342.7 1122.48,-341.44 1123.99,-348.28"/>
</g>
<!-- api/definitionReactions/routes.ts -->
<g id="node15" class="node">
<title>api/definitionReactions/routes.ts</title>
<path fill="none" stroke="#c6c5fe" d="M389.33,-349C389.33,-349 196.67,-349 196.67,-349 192.83,-349 189,-345.17 189,-341.33 189,-341.33 189,-333.67 189,-333.67 189,-329.83 192.83,-326 196.67,-326 196.67,-326 389.33,-326 389.33,-326 393.17,-326 397,-329.83 397,-333.67 397,-333.67 397,-341.33 397,-341.33 397,-345.17 393.17,-349 389.33,-349"/>
<text text-anchor="middle" x="293" y="-333.8" font-family="Arial" font-size="14.00" fill="#c6c5fe">api/definitionReactions/routes.ts</text>
</g>
<!-- api/definitionReactions/routes.ts&#45;&gt;api/definitionReactions/model.ts -->
<g id="edge12" class="edge">
<title>api/definitionReactions/routes.ts&#45;&gt;api/definitionReactions/model.ts</title>
<path fill="none" stroke="#757575" d="M372.52,-349.01C392.22,-351.53 413.35,-353.92 433,-355.5 587.08,-367.93 765.69,-371.86 878.75,-373.06"/>
<polygon fill="#757575" stroke="#757575" points="878.77,-376.56 888.8,-373.16 878.84,-369.56 878.77,-376.56"/>
</g>
<!-- api/definitionReactions/utils.ts -->
<g id="node16" class="node">
<title>api/definitionReactions/utils.ts</title>
<path fill="none" stroke="#cfffac" d="M630.83,-346C630.83,-346 452.17,-346 452.17,-346 448.33,-346 444.5,-342.17 444.5,-338.33 444.5,-338.33 444.5,-330.67 444.5,-330.67 444.5,-326.83 448.33,-323 452.17,-323 452.17,-323 630.83,-323 630.83,-323 634.67,-323 638.5,-326.83 638.5,-330.67 638.5,-330.67 638.5,-338.33 638.5,-338.33 638.5,-342.17 634.67,-346 630.83,-346"/>
<text text-anchor="middle" x="541.5" y="-330.8" font-family="Arial" font-size="14.00" fill="#cfffac">api/definitionReactions/utils.ts</text>
</g>
<!-- api/definitionReactions/routes.ts&#45;&gt;api/definitionReactions/utils.ts -->
<g id="edge13" class="edge">
<title>api/definitionReactions/routes.ts&#45;&gt;api/definitionReactions/utils.ts</title>
<path fill="none" stroke="#757575" d="M397.11,-336.25C409.38,-336.1 421.91,-335.94 434.22,-335.79"/>
<polygon fill="#757575" stroke="#757575" points="434.54,-339.29 444.5,-335.67 434.45,-332.29 434.54,-339.29"/>
</g>
<!-- api/definitions/model.ts -->
<g id="node17" class="node">
<title>api/definitions/model.ts</title>
<path fill="none" stroke="#c6c5fe" d="M611.33,-228C611.33,-228 471.67,-228 471.67,-228 467.83,-228 464,-224.17 464,-220.33 464,-220.33 464,-212.67 464,-212.67 464,-208.83 467.83,-205 471.67,-205 471.67,-205 611.33,-205 611.33,-205 615.17,-205 619,-208.83 619,-212.67 619,-212.67 619,-220.33 619,-220.33 619,-224.17 615.17,-228 611.33,-228"/>
<text text-anchor="middle" x="541.5" y="-212.8" font-family="Arial" font-size="14.00" fill="#c6c5fe">api/definitions/model.ts</text>
</g>
<!-- api/definitions/model.ts&#45;&gt;dbConfig.ts -->
<g id="edge15" class="edge">
<title>api/definitions/model.ts&#45;&gt;dbConfig.ts</title>
<path fill="none" stroke="#757575" d="M619.37,-209.66C730.05,-202.96 938.4,-202.31 1097,-272.5 1119.72,-282.56 1141.59,-300.81 1156.27,-314.74"/>
<polygon fill="#757575" stroke="#757575" points="1154.05,-317.47 1163.64,-321.96 1158.94,-312.46 1154.05,-317.47"/>
</g>
<!-- api/definitions/utils.ts -->
<g id="node18" class="node">
<title>api/definitions/utils.ts</title>
<path fill="none" stroke="#cfffac" d="M832.33,-264C832.33,-264 706.67,-264 706.67,-264 702.83,-264 699,-260.17 699,-256.33 699,-256.33 699,-248.67 699,-248.67 699,-244.83 702.83,-241 706.67,-241 706.67,-241 832.33,-241 832.33,-241 836.17,-241 840,-244.83 840,-248.67 840,-248.67 840,-256.33 840,-256.33 840,-260.17 836.17,-264 832.33,-264"/>
<text text-anchor="middle" x="769.5" y="-248.8" font-family="Arial" font-size="14.00" fill="#cfffac">api/definitions/utils.ts</text>
</g>
<!-- api/definitions/model.ts&#45;&gt;api/definitions/utils.ts -->
<g id="edge14" class="edge">
<title>api/definitions/model.ts&#45;&gt;api/definitions/utils.ts</title>
<path fill="none" stroke="#757575" d="M614.94,-228.04C638.44,-231.78 664.63,-235.95 688.64,-239.78"/>
<polygon fill="#757575" stroke="#757575" points="688.35,-243.28 698.78,-241.39 689.46,-236.36 688.35,-243.28"/>
</g>
<!-- api/definitions/routes.ts -->
<g id="node19" class="node">
<title>api/definitions/routes.ts</title>
<path fill="none" stroke="#c6c5fe" d="M362.83,-228C362.83,-228 223.17,-228 223.17,-228 219.33,-228 215.5,-224.17 215.5,-220.33 215.5,-220.33 215.5,-212.67 215.5,-212.67 215.5,-208.83 219.33,-205 223.17,-205 223.17,-205 362.83,-205 362.83,-205 366.67,-205 370.5,-208.83 370.5,-212.67 370.5,-212.67 370.5,-220.33 370.5,-220.33 370.5,-224.17 366.67,-228 362.83,-228"/>
<text text-anchor="middle" x="293" y="-212.8" font-family="Arial" font-size="14.00" fill="#c6c5fe">api/definitions/routes.ts</text>
</g>
<!-- api/definitions/routes.ts&#45;&gt;api/definitions/model.ts -->
<g id="edge16" class="edge">
<title>api/definitions/routes.ts&#45;&gt;api/definitions/model.ts</title>
<path fill="none" stroke="#757575" d="M370.64,-216.5C396.96,-216.5 426.6,-216.5 453.67,-216.5"/>
<polygon fill="#757575" stroke="#757575" points="453.9,-220 463.9,-216.5 453.9,-213 453.9,-220"/>
</g>
<!-- api/game/model.ts -->
<g id="node20" class="node">
<title>api/game/model.ts</title>
<path fill="none" stroke="#c6c5fe" d="M1049.33,-624C1049.33,-624 936.67,-624 936.67,-624 932.83,-624 929,-620.17 929,-616.33 929,-616.33 929,-608.67 929,-608.67 929,-604.83 932.83,-601 936.67,-601 936.67,-601 1049.33,-601 1049.33,-601 1053.17,-601 1057,-604.83 1057,-608.67 1057,-608.67 1057,-616.33 1057,-616.33 1057,-620.17 1053.17,-624 1049.33,-624"/>
<text text-anchor="middle" x="993" y="-608.8" font-family="Arial" font-size="14.00" fill="#c6c5fe">api/game/model.ts</text>
</g>
<!-- api/game/model.ts&#45;&gt;dbConfig.ts -->
<g id="edge17" class="edge">
<title>api/game/model.ts&#45;&gt;dbConfig.ts</title>
<path fill="none" stroke="#757575" d="M1057.15,-607.17C1071.71,-603.26 1086.11,-596.86 1097,-586.5 1163.7,-523.05 1173.46,-403.91 1174.56,-355.15"/>
<polygon fill="#757575" stroke="#757575" points="1178.06,-355.13 1174.68,-345.09 1171.06,-355.05 1178.06,-355.13"/>
</g>
<!-- api/game/routes.ts -->
<g id="node21" class="node">
<title>api/game/routes.ts</title>
<path fill="none" stroke="#c6c5fe" d="M349.33,-620C349.33,-620 236.67,-620 236.67,-620 232.83,-620 229,-616.17 229,-612.33 229,-612.33 229,-604.67 229,-604.67 229,-600.83 232.83,-597 236.67,-597 236.67,-597 349.33,-597 349.33,-597 353.17,-597 357,-600.83 357,-604.67 357,-604.67 357,-612.33 357,-612.33 357,-616.17 353.17,-620 349.33,-620"/>
<text text-anchor="middle" x="293" y="-604.8" font-family="Arial" font-size="14.00" fill="#c6c5fe">api/game/routes.ts</text>
</g>
<!-- api/game/routes.ts&#45;&gt;api/game/model.ts -->
<g id="edge18" class="edge">
<title>api/game/routes.ts&#45;&gt;api/game/model.ts</title>
<path fill="none" stroke="#757575" d="M357.17,-608.86C486.66,-609.6 781.51,-611.29 918.95,-612.08"/>
<polygon fill="#757575" stroke="#757575" points="918.95,-615.58 928.97,-612.14 918.99,-608.58 918.95,-615.58"/>
</g>
<!-- api/played/model.ts&#45;&gt;dbConfig.ts -->
<g id="edge19" class="edge">
<title>api/played/model.ts&#45;&gt;dbConfig.ts</title>
<path fill="none" stroke="#757575" d="M1046.21,-305.07C1070.35,-310.42 1098.94,-316.76 1122.99,-322.09"/>
<polygon fill="#757575" stroke="#757575" points="1122.48,-325.56 1133,-324.3 1123.99,-318.72 1122.48,-325.56"/>
</g>
<!-- api/played/routes.ts -->
<g id="node23" class="node">
<title>api/played/routes.ts</title>
<path fill="none" stroke="#c6c5fe" d="M828.83,-305C828.83,-305 710.17,-305 710.17,-305 706.33,-305 702.5,-301.17 702.5,-297.33 702.5,-297.33 702.5,-289.67 702.5,-289.67 702.5,-285.83 706.33,-282 710.17,-282 710.17,-282 828.83,-282 828.83,-282 832.67,-282 836.5,-285.83 836.5,-289.67 836.5,-289.67 836.5,-297.33 836.5,-297.33 836.5,-301.17 832.67,-305 828.83,-305"/>
<text text-anchor="middle" x="769.5" y="-289.8" font-family="Arial" font-size="14.00" fill="#c6c5fe">api/played/routes.ts</text>
</g>
<!-- api/played/routes.ts&#45;&gt;api/played/model.ts -->
<g id="edge20" class="edge">
<title>api/played/routes.ts&#45;&gt;api/played/model.ts</title>
<path fill="none" stroke="#757575" d="M836.66,-293.5C861.53,-293.5 890,-293.5 915.72,-293.5"/>
<polygon fill="#757575" stroke="#757575" points="915.8,-297 925.8,-293.5 915.8,-290 915.8,-297"/>
</g>
<!-- api/player/routes.ts -->
<g id="node25" class="node">
<title>api/player/routes.ts</title>
<path fill="none" stroke="#c6c5fe" d="M599.33,-547C599.33,-547 483.67,-547 483.67,-547 479.83,-547 476,-543.17 476,-539.33 476,-539.33 476,-531.67 476,-531.67 476,-527.83 479.83,-524 483.67,-524 483.67,-524 599.33,-524 599.33,-524 603.17,-524 607,-527.83 607,-531.67 607,-531.67 607,-539.33 607,-539.33 607,-543.17 603.17,-547 599.33,-547"/>
<text text-anchor="middle" x="541.5" y="-531.8" font-family="Arial" font-size="14.00" fill="#c6c5fe">api/player/routes.ts</text>
</g>
<!-- api/player/routes.ts&#45;&gt;api/player/model.ts -->
<g id="edge23" class="edge">
<title>api/player/routes.ts&#45;&gt;api/player/model.ts</title>
<path fill="none" stroke="#757575" d="M607.26,-524.32C634.21,-519.67 665.67,-514.24 693.61,-509.42"/>
<polygon fill="#757575" stroke="#757575" points="694.47,-512.83 703.73,-507.68 693.28,-505.93 694.47,-512.83"/>
</g>
<!-- api/reactions/model.ts -->
<g id="node26" class="node">
<title>api/reactions/model.ts</title>
<path fill="none" stroke="#c6c5fe" d="M836.33,-585C836.33,-585 702.67,-585 702.67,-585 698.83,-585 695,-581.17 695,-577.33 695,-577.33 695,-569.67 695,-569.67 695,-565.83 698.83,-562 702.67,-562 702.67,-562 836.33,-562 836.33,-562 840.17,-562 844,-565.83 844,-569.67 844,-569.67 844,-577.33 844,-577.33 844,-581.17 840.17,-585 836.33,-585"/>
<text text-anchor="middle" x="769.5" y="-569.8" font-family="Arial" font-size="14.00" fill="#c6c5fe">api/reactions/model.ts</text>
</g>
<!-- api/reactions/model.ts&#45;&gt;dbConfig.ts -->
<g id="edge24" class="edge">
<title>api/reactions/model.ts&#45;&gt;dbConfig.ts</title>
<path fill="none" stroke="#757575" d="M844.03,-575.85C927.99,-577.03 1058.71,-573.83 1097,-544.5 1157.7,-498 1170.88,-399.07 1173.73,-355.21"/>
<polygon fill="#757575" stroke="#757575" points="1177.23,-355.25 1174.26,-345.08 1170.24,-354.88 1177.23,-355.25"/>
</g>
<!-- api/reactions/routes.ts -->
<g id="node27" class="node">
<title>api/reactions/routes.ts</title>
<path fill="none" stroke="#c6c5fe" d="M359.83,-574C359.83,-574 226.17,-574 226.17,-574 222.33,-574 218.5,-570.17 218.5,-566.33 218.5,-566.33 218.5,-558.67 218.5,-558.67 218.5,-554.83 222.33,-551 226.17,-551 226.17,-551 359.83,-551 359.83,-551 363.67,-551 367.5,-554.83 367.5,-558.67 367.5,-558.67 367.5,-566.33 367.5,-566.33 367.5,-570.17 363.67,-574 359.83,-574"/>
<text text-anchor="middle" x="293" y="-558.8" font-family="Arial" font-size="14.00" fill="#c6c5fe">api/reactions/routes.ts</text>
</g>
<!-- api/reactions/routes.ts&#45;&gt;api/reactions/model.ts -->
<g id="edge25" class="edge">
<title>api/reactions/routes.ts&#45;&gt;api/reactions/model.ts</title>
<path fill="none" stroke="#757575" d="M367.62,-564.21C453.34,-566.19 594.63,-569.47 684.55,-571.55"/>
<polygon fill="#757575" stroke="#757575" points="684.63,-575.06 694.71,-571.79 684.79,-568.06 684.63,-575.06"/>
</g>
<!-- api/rounds/routes.ts -->
<g id="node29" class="node">
<title>api/rounds/routes.ts</title>
<path fill="none" stroke="#c6c5fe" d="M601.33,-426C601.33,-426 481.67,-426 481.67,-426 477.83,-426 474,-422.17 474,-418.33 474,-418.33 474,-410.67 474,-410.67 474,-406.83 477.83,-403 481.67,-403 481.67,-403 601.33,-403 601.33,-403 605.17,-403 609,-406.83 609,-410.67 609,-410.67 609,-418.33 609,-418.33 609,-422.17 605.17,-426 601.33,-426"/>
<text text-anchor="middle" x="541.5" y="-410.8" font-family="Arial" font-size="14.00" fill="#c6c5fe">api/rounds/routes.ts</text>
</g>
<!-- api/rounds/routes.ts&#45;&gt;api/rounds/model.ts -->
<g id="edge28" class="edge">
<title>api/rounds/routes.ts&#45;&gt;api/rounds/model.ts</title>
<path fill="none" stroke="#757575" d="M609.09,-414.5C634.95,-414.5 664.73,-414.5 691.51,-414.5"/>
<polygon fill="#757575" stroke="#757575" points="691.61,-418 701.61,-414.5 691.61,-411 691.61,-418"/>
</g>
<!-- api/userRounds/routes.ts -->
<g id="node30" class="node">
<title>api/userRounds/routes.ts</title>
<path fill="none" stroke="#c6c5fe" d="M368.83,-308C368.83,-308 217.17,-308 217.17,-308 213.33,-308 209.5,-304.17 209.5,-300.33 209.5,-300.33 209.5,-292.67 209.5,-292.67 209.5,-288.83 213.33,-285 217.17,-285 217.17,-285 368.83,-285 368.83,-285 372.67,-285 376.5,-288.83 376.5,-292.67 376.5,-292.67 376.5,-300.33 376.5,-300.33 376.5,-304.17 372.67,-308 368.83,-308"/>
<text text-anchor="middle" x="293" y="-292.8" font-family="Arial" font-size="14.00" fill="#c6c5fe">api/userRounds/routes.ts</text>
</g>
<!-- api/userRounds/routes.ts&#45;&gt;api/userRounds/model.ts -->
<g id="edge31" class="edge">
<title>api/userRounds/routes.ts&#45;&gt;api/userRounds/model.ts</title>
<path fill="none" stroke="#757575" d="M376.58,-297.95C448.88,-299.87 556.65,-304.3 650,-314.5 665.65,-316.21 682.37,-318.65 698.18,-321.24"/>
<polygon fill="#757575" stroke="#757575" points="697.96,-324.76 708.41,-322.96 699.12,-317.85 697.96,-324.76"/>
</g>
<!-- api/votes/model.ts -->
<g id="node31" class="node">
<title>api/votes/model.ts</title>
<path fill="none" stroke="#c6c5fe" d="M596.83,-67C596.83,-67 486.17,-67 486.17,-67 482.33,-67 478.5,-63.17 478.5,-59.33 478.5,-59.33 478.5,-51.67 478.5,-51.67 478.5,-47.83 482.33,-44 486.17,-44 486.17,-44 596.83,-44 596.83,-44 600.67,-44 604.5,-47.83 604.5,-51.67 604.5,-51.67 604.5,-59.33 604.5,-59.33 604.5,-63.17 600.67,-67 596.83,-67"/>
<text text-anchor="middle" x="541.5" y="-51.8" font-family="Arial" font-size="14.00" fill="#c6c5fe">api/votes/model.ts</text>
</g>
<!-- api/votes/model.ts&#45;&gt;dbConfig.ts -->
<g id="edge33" class="edge">
<title>api/votes/model.ts&#45;&gt;dbConfig.ts</title>
<path fill="none" stroke="#757575" d="M604.8,-44.37C629.93,-40.41 659.26,-36.45 686,-34.5 869.99,-21.11 961.58,32.78 1097,-92.5 1161.22,-151.91 1172.43,-264.62 1174.23,-311.84"/>
<polygon fill="#757575" stroke="#757575" points="1170.74,-311.97 1174.51,-321.87 1177.73,-311.78 1170.74,-311.97"/>
</g>
<!-- api/votes/utils.ts -->
<g id="node32" class="node">
<title>api/votes/utils.ts</title>
<path fill="none" stroke="#cfffac" d="M818.33,-67C818.33,-67 720.67,-67 720.67,-67 716.83,-67 713,-63.17 713,-59.33 713,-59.33 713,-51.67 713,-51.67 713,-47.83 716.83,-44 720.67,-44 720.67,-44 818.33,-44 818.33,-44 822.17,-44 826,-47.83 826,-51.67 826,-51.67 826,-59.33 826,-59.33 826,-63.17 822.17,-67 818.33,-67"/>
<text text-anchor="middle" x="769.5" y="-51.8" font-family="Arial" font-size="14.00" fill="#cfffac">api/votes/utils.ts</text>
</g>
<!-- api/votes/model.ts&#45;&gt;api/votes/utils.ts -->
<g id="edge32" class="edge">
<title>api/votes/model.ts&#45;&gt;api/votes/utils.ts</title>
<path fill="none" stroke="#757575" d="M604.55,-55.5C634.96,-55.5 671.59,-55.5 702.51,-55.5"/>
<polygon fill="#757575" stroke="#757575" points="702.76,-59 712.76,-55.5 702.76,-52 702.76,-59"/>
</g>
<!-- api/votes/routes.ts -->
<g id="node33" class="node">
<title>api/votes/routes.ts</title>
<path fill="none" stroke="#c6c5fe" d="M348.33,-105C348.33,-105 237.67,-105 237.67,-105 233.83,-105 230,-101.17 230,-97.33 230,-97.33 230,-89.67 230,-89.67 230,-85.83 233.83,-82 237.67,-82 237.67,-82 348.33,-82 348.33,-82 352.17,-82 356,-85.83 356,-89.67 356,-89.67 356,-97.33 356,-97.33 356,-101.17 352.17,-105 348.33,-105"/>
<text text-anchor="middle" x="293" y="-89.8" font-family="Arial" font-size="14.00" fill="#c6c5fe">api/votes/routes.ts</text>
</g>
<!-- api/votes/routes.ts&#45;&gt;api/votes/model.ts -->
<g id="edge34" class="edge">
<title>api/votes/routes.ts&#45;&gt;api/votes/model.ts</title>
<path fill="none" stroke="#757575" d="M356.2,-83.91C390.21,-78.67 432.52,-72.15 468.02,-66.67"/>
<polygon fill="#757575" stroke="#757575" points="468.97,-70.07 478.32,-65.09 467.9,-63.15 468.97,-70.07"/>
</g>
<!-- api/words/model.ts -->
<g id="node34" class="node">
<title>api/words/model.ts</title>
<path fill="none" stroke="#c6c5fe" d="M1050.33,-184C1050.33,-184 935.67,-184 935.67,-184 931.83,-184 928,-180.17 928,-176.33 928,-176.33 928,-168.67 928,-168.67 928,-164.83 931.83,-161 935.67,-161 935.67,-161 1050.33,-161 1050.33,-161 1054.17,-161 1058,-164.83 1058,-168.67 1058,-168.67 1058,-176.33 1058,-176.33 1058,-180.17 1054.17,-184 1050.33,-184"/>
<text text-anchor="middle" x="993" y="-168.8" font-family="Arial" font-size="14.00" fill="#c6c5fe">api/words/model.ts</text>
</g>
<!-- api/words/model.ts&#45;&gt;dbConfig.ts -->
<g id="edge35" class="edge">
<title>api/words/model.ts&#45;&gt;dbConfig.ts</title>
<path fill="none" stroke="#757575" d="M1058.05,-180.28C1071.85,-184.15 1085.68,-189.92 1097,-198.5 1135.54,-227.7 1158.06,-282.02 1168.13,-312.09"/>
<polygon fill="#757575" stroke="#757575" points="1164.8,-313.17 1171.18,-321.63 1171.47,-311.04 1164.8,-313.17"/>
</g>
<!-- api/words/routes.ts -->
<g id="node35" class="node">
<title>api/words/routes.ts</title>
<path fill="none" stroke="#c6c5fe" d="M350.33,-187C350.33,-187 235.67,-187 235.67,-187 231.83,-187 228,-183.17 228,-179.33 228,-179.33 228,-171.67 228,-171.67 228,-167.83 231.83,-164 235.67,-164 235.67,-164 350.33,-164 350.33,-164 354.17,-164 358,-167.83 358,-171.67 358,-171.67 358,-179.33 358,-179.33 358,-183.17 354.17,-187 350.33,-187"/>
<text text-anchor="middle" x="293" y="-171.8" font-family="Arial" font-size="14.00" fill="#c6c5fe">api/words/routes.ts</text>
</g>
<!-- api/words/routes.ts&#45;&gt;api/words/utils.ts -->
<g id="edge37" class="edge">
<title>api/words/routes.ts&#45;&gt;api/words/utils.ts</title>
<path fill="none" stroke="#757575" d="M358.12,-165.09C393.59,-159.34 437.62,-152.2 473.53,-146.37"/>
<polygon fill="#757575" stroke="#757575" points="474.12,-149.82 483.43,-144.76 472.99,-142.91 474.12,-149.82"/>
</g>
<!-- api/words/routes.ts&#45;&gt;api/words/model.ts -->
<g id="edge36" class="edge">
<title>api/words/routes.ts&#45;&gt;api/words/model.ts</title>
<path fill="none" stroke="#757575" d="M358.1,-175.22C487.73,-174.67 780.33,-173.41 917.89,-172.82"/>
<polygon fill="#757575" stroke="#757575" points="917.94,-176.32 927.92,-172.78 917.91,-169.32 917.94,-176.32"/>
</g>
<!-- app.ts -->
<g id="node36" class="node">
<title>app.ts</title>
<path fill="none" stroke="#c6c5fe" d="M145.33,-288C145.33,-288 106.67,-288 106.67,-288 102.83,-288 99,-284.17 99,-280.33 99,-280.33 99,-272.67 99,-272.67 99,-268.83 102.83,-265 106.67,-265 106.67,-265 145.33,-265 145.33,-265 149.17,-265 153,-268.83 153,-272.67 153,-272.67 153,-280.33 153,-280.33 153,-284.17 149.17,-288 145.33,-288"/>
<text text-anchor="middle" x="126" y="-272.8" font-family="Arial" font-size="14.00" fill="#c6c5fe">app.ts</text>
</g>
<!-- app.ts&#45;&gt;api/admin/routes.ts -->
<g id="edge38" class="edge">
<title>app.ts&#45;&gt;api/admin/routes.ts</title>
<path fill="none" stroke="#757575" d="M129.32,-264.91C134.89,-240.32 151.44,-182.83 189,-154.5 197.38,-148.18 207.2,-143.7 217.39,-140.53"/>
<polygon fill="#757575" stroke="#757575" points="218.48,-143.86 227.24,-137.89 216.67,-137.1 218.48,-143.86"/>
</g>
<!-- app.ts&#45;&gt;api/auth/routes.ts -->
<g id="edge39" class="edge">
<title>app.ts&#45;&gt;api/auth/routes.ts</title>
<path fill="none" stroke="#757575" d="M129.43,-288.16C135.3,-313.64 152.55,-374.82 189,-410.5 202.59,-423.8 220.76,-433.5 238.05,-440.41"/>
<polygon fill="#757575" stroke="#757575" points="236.94,-443.73 247.54,-443.96 239.4,-437.17 236.94,-443.73"/>
</g>
<!-- app.ts&#45;&gt;api/clever/routes.ts -->
<g id="edge40" class="edge">
<title>app.ts&#45;&gt;api/clever/routes.ts</title>
<path fill="none" stroke="#757575" d="M126.7,-264.9C126.47,-229.97 130.86,-124.93 189,-72.5 197.23,-65.07 207.38,-60.05 218.05,-56.7"/>
<polygon fill="#757575" stroke="#757575" points="219.19,-60.02 227.97,-54.08 217.4,-53.25 219.19,-60.02"/>
</g>
<!-- app.ts&#45;&gt;api/definitionReactions/routes.ts -->
<g id="edge41" class="edge">
<title>app.ts&#45;&gt;api/definitionReactions/routes.ts</title>
<path fill="none" stroke="#757575" d="M141.35,-288.38C153.36,-297.7 171.32,-310.27 189,-317.5 194.11,-319.59 199.46,-321.46 204.91,-323.15"/>
<polygon fill="#757575" stroke="#757575" points="204.23,-326.59 214.81,-325.97 206.15,-319.86 204.23,-326.59"/>
</g>
<!-- app.ts&#45;&gt;api/definitions/routes.ts -->
<g id="edge42" class="edge">
<title>app.ts&#45;&gt;api/definitions/routes.ts</title>
<path fill="none" stroke="#757575" d="M145.12,-264.96C157.18,-257.69 173.58,-248.56 189,-242.5 200.58,-237.95 213.21,-233.99 225.53,-230.63"/>
<polygon fill="#757575" stroke="#757575" points="226.54,-233.98 235.32,-228.06 224.76,-227.21 226.54,-233.98"/>
</g>
<!-- app.ts&#45;&gt;api/game/routes.ts -->
<g id="edge43" class="edge">
<title>app.ts&#45;&gt;api/game/routes.ts</title>
<path fill="none" stroke="#757575" d="M127.73,-288.31C131.12,-339.28 146.97,-539.81 189,-583.5 197.27,-592.1 207.96,-597.95 219.31,-601.88"/>
<polygon fill="#757575" stroke="#757575" points="218.38,-605.26 228.97,-604.76 220.38,-598.55 218.38,-605.26"/>
</g>
<!-- app.ts&#45;&gt;api/played/routes.ts -->
<g id="edge44" class="edge">
<title>app.ts&#45;&gt;api/played/routes.ts</title>
<path fill="none" stroke="#757575" d="M153.24,-275.98C164.28,-275.79 177.27,-275.59 189,-275.5 281.44,-274.75 304.58,-273.26 397,-275.5 499.19,-277.97 617.05,-284.27 692.13,-288.72"/>
<polygon fill="#757575" stroke="#757575" points="692.24,-292.23 702.43,-289.33 692.66,-285.24 692.24,-292.23"/>
</g>
<!-- app.ts&#45;&gt;api/player/routes.ts -->
<g id="edge45" class="edge">
<title>app.ts&#45;&gt;api/player/routes.ts</title>
<path fill="none" stroke="#757575" d="M126.72,-288.19C126.58,-322.89 131.25,-426.02 189,-476.5 229.21,-511.64 374.98,-526.22 465.69,-531.98"/>
<polygon fill="#757575" stroke="#757575" points="465.73,-535.49 475.92,-532.61 466.16,-528.51 465.73,-535.49"/>
</g>
<!-- app.ts&#45;&gt;api/reactions/routes.ts -->
<g id="edge46" class="edge">
<title>app.ts&#45;&gt;api/reactions/routes.ts</title>
<path fill="none" stroke="#757575" d="M128.39,-288.14C133.92,-332.62 155.68,-491.21 189,-527.5 196.66,-535.84 206.37,-542.19 216.77,-547.03"/>
<polygon fill="#757575" stroke="#757575" points="215.46,-550.28 226.04,-550.91 218.16,-543.82 215.46,-550.28"/>
</g>
<!-- app.ts&#45;&gt;api/rounds/routes.ts -->
<g id="edge47" class="edge">
<title>app.ts&#45;&gt;api/rounds/routes.ts</title>
<path fill="none" stroke="#757575" d="M132.13,-288C140.92,-306.25 160.69,-341.5 189,-358.5 273.25,-409.08 388.46,-418.43 463.66,-418.26"/>
<polygon fill="#757575" stroke="#757575" points="464.03,-421.75 474,-418.17 463.97,-414.75 464.03,-421.75"/>
</g>
<!-- app.ts&#45;&gt;api/userRounds/routes.ts -->
<g id="edge48" class="edge">
<title>app.ts&#45;&gt;api/userRounds/routes.ts</title>
<path fill="none" stroke="#757575" d="M153.14,-279.67C165.98,-281.23 182.31,-283.2 199.22,-285.25"/>
<polygon fill="#757575" stroke="#757575" points="198.87,-288.74 209.22,-286.47 199.71,-281.79 198.87,-288.74"/>
</g>
<!-- app.ts&#45;&gt;api/votes/routes.ts -->
<g id="edge49" class="edge">
<title>app.ts&#45;&gt;api/votes/routes.ts</title>
<path fill="none" stroke="#757575" d="M127.71,-264.87C130.21,-234.73 141.28,-153.66 189,-113.5 197.84,-106.06 208.62,-101.08 219.84,-97.8"/>
<polygon fill="#757575" stroke="#757575" points="220.91,-101.14 229.77,-95.33 219.22,-94.34 220.91,-101.14"/>
</g>
<!-- app.ts&#45;&gt;api/words/routes.ts -->
<g id="edge50" class="edge">
<title>app.ts&#45;&gt;api/words/routes.ts</title>
<path fill="none" stroke="#757575" d="M132.38,-264.95C141.39,-247 161.3,-212.66 189,-195.5 197.8,-190.05 207.77,-186.03 217.96,-183.08"/>
<polygon fill="#757575" stroke="#757575" points="218.94,-186.44 227.76,-180.57 217.2,-179.66 218.94,-186.44"/>
</g>
<!-- logger.ts -->
<g id="node37" class="node">
<title>logger.ts</title>
<path fill="none" stroke="#cfffac" d="M319.33,-23C319.33,-23 266.67,-23 266.67,-23 262.83,-23 259,-19.17 259,-15.33 259,-15.33 259,-7.67 259,-7.67 259,-3.83 262.83,0 266.67,0 266.67,0 319.33,0 319.33,0 323.17,0 327,-3.83 327,-7.67 327,-7.67 327,-15.33 327,-15.33 327,-19.17 323.17,-23 319.33,-23"/>
<text text-anchor="middle" x="293" y="-7.8" font-family="Arial" font-size="14.00" fill="#cfffac">logger.ts</text>
</g>
<!-- app.ts&#45;&gt;logger.ts -->
<g id="edge51" class="edge">
<title>app.ts&#45;&gt;logger.ts</title>
<path fill="none" stroke="#757575" d="M128.29,-265C133.44,-221.05 154.01,-64.58 189,-31.5 204.74,-16.62 228.08,-11.25 248.56,-9.76"/>
<polygon fill="#757575" stroke="#757575" points="248.82,-13.25 258.65,-9.31 248.51,-6.26 248.82,-13.25"/>
</g>
<!-- index.ts -->
<g id="node38" class="node">
<title>index.ts</title>
<path fill="none" stroke="#c6c5fe" d="M55.33,-288C55.33,-288 7.67,-288 7.67,-288 3.83,-288 0,-284.17 0,-280.33 0,-280.33 0,-272.67 0,-272.67 0,-268.83 3.83,-265 7.67,-265 7.67,-265 55.33,-265 55.33,-265 59.17,-265 63,-268.83 63,-272.67 63,-272.67 63,-280.33 63,-280.33 63,-284.17 59.17,-288 55.33,-288"/>
<text text-anchor="middle" x="31.5" y="-272.8" font-family="Arial" font-size="14.00" fill="#c6c5fe">index.ts</text>
</g>
<!-- index.ts&#45;&gt;app.ts -->
<g id="edge53" class="edge">
<title>index.ts&#45;&gt;app.ts</title>
<path fill="none" stroke="#757575" d="M63.04,-276.5C71.27,-276.5 80.26,-276.5 88.77,-276.5"/>
<polygon fill="#757575" stroke="#757575" points="88.83,-280 98.83,-276.5 88.83,-273 88.83,-280"/>
</g>
</g>
</svg>
