<?xml version="1.0" encoding="UTF-8" standalone="no"?>
<!DOCTYPE svg PUBLIC "-//W3C//DTD SVG 1.1//EN"
 "http://www.w3.org/Graphics/SVG/1.1/DTD/svg11.dtd">
<!-- Generated by graphviz version 2.43.0 (0)
 -->
<!-- Title: G Pages: 1 -->
<svg width="1214pt" height="741pt"
 viewBox="0.00 0.00 1214.20 741.20" xmlns="http://www.w3.org/2000/svg" xmlns:xlink="http://www.w3.org/1999/xlink">
<g id="graph0" class="graph" transform="scale(1 1) rotate(0) translate(21.6 719.6)">
<title>G</title>
<polygon fill="#111111" stroke="transparent" points="-21.6,21.6 -21.6,-719.6 1192.6,-719.6 1192.6,21.6 -21.6,21.6"/>
<!-- ../knexfile.ts -->
<g id="node1" class="node">
<title>../knexfile.ts</title>
<path fill="none" stroke="#cfffac" d="M1163.33,-336C1163.33,-336 1090.67,-336 1090.67,-336 1086.83,-336 1083,-332.17 1083,-328.33 1083,-328.33 1083,-320.67 1083,-320.67 1083,-316.83 1086.83,-313 1090.67,-313 1090.67,-313 1163.33,-313 1163.33,-313 1167.17,-313 1171,-316.83 1171,-320.67 1171,-320.67 1171,-328.33 1171,-328.33 1171,-332.17 1167.17,-336 1163.33,-336"/>
<text text-anchor="middle" x="1127" y="-320.8" font-family="Arial" font-size="14.00" fill="#cfffac">../knexfile.ts</text>
</g>
<!-- api/admin/model.ts -->
<g id="node2" class="node">
<title>api/admin/model.ts</title>
<path fill="none" stroke="#c6c5fe" d="M847.83,-336C847.83,-336 732.17,-336 732.17,-336 728.33,-336 724.5,-332.17 724.5,-328.33 724.5,-328.33 724.5,-320.67 724.5,-320.67 724.5,-316.83 728.33,-313 732.17,-313 732.17,-313 847.83,-313 847.83,-313 851.67,-313 855.5,-316.83 855.5,-320.67 855.5,-320.67 855.5,-328.33 855.5,-328.33 855.5,-332.17 851.67,-336 847.83,-336"/>
<text text-anchor="middle" x="790" y="-320.8" font-family="Arial" font-size="14.00" fill="#c6c5fe">api/admin/model.ts</text>
</g>
<!-- dbConfig.ts -->
<g id="node3" class="node">
<title>dbConfig.ts</title>
<path fill="none" stroke="#c6c5fe" d="M1023.33,-336C1023.33,-336 953.67,-336 953.67,-336 949.83,-336 946,-332.17 946,-328.33 946,-328.33 946,-320.67 946,-320.67 946,-316.83 949.83,-313 953.67,-313 953.67,-313 1023.33,-313 1023.33,-313 1027.17,-313 1031,-316.83 1031,-320.67 1031,-320.67 1031,-328.33 1031,-328.33 1031,-332.17 1027.17,-336 1023.33,-336"/>
<text text-anchor="middle" x="988.5" y="-320.8" font-family="Arial" font-size="14.00" fill="#c6c5fe">dbConfig.ts</text>
</g>
<!-- api/admin/model.ts&#45;&gt;dbConfig.ts -->
<g id="edge1" class="edge">
<title>api/admin/model.ts&#45;&gt;dbConfig.ts</title>
<path fill="none" stroke="#757575" d="M855.61,-324.5C881.55,-324.5 911.05,-324.5 935.56,-324.5"/>
<polygon fill="#757575" stroke="#757575" points="935.73,-328 945.73,-324.5 935.73,-321 935.73,-328"/>
</g>
<!-- dbConfig.ts&#45;&gt;../knexfile.ts -->
<g id="edge53" class="edge">
<title>dbConfig.ts&#45;&gt;../knexfile.ts</title>
<path fill="none" stroke="#757575" d="M1031.2,-324.5C1044.19,-324.5 1058.71,-324.5 1072.4,-324.5"/>
<polygon fill="#757575" stroke="#757575" points="1072.67,-328 1082.67,-324.5 1072.67,-321 1072.67,-328"/>
</g>
<!-- api/admin/routes.ts -->
<g id="node4" class="node">
<title>api/admin/routes.ts</title>
<path fill="none" stroke="#c6c5fe" d="M350.83,-332C350.83,-332 235.17,-332 235.17,-332 231.33,-332 227.5,-328.17 227.5,-324.33 227.5,-324.33 227.5,-316.67 227.5,-316.67 227.5,-312.83 231.33,-309 235.17,-309 235.17,-309 350.83,-309 350.83,-309 354.67,-309 358.5,-312.83 358.5,-316.67 358.5,-316.67 358.5,-324.33 358.5,-324.33 358.5,-328.17 354.67,-332 350.83,-332"/>
<text text-anchor="middle" x="293" y="-316.8" font-family="Arial" font-size="14.00" fill="#c6c5fe">api/admin/routes.ts</text>
</g>
<!-- api/admin/routes.ts&#45;&gt;api/admin/model.ts -->
<g id="edge2" class="edge">
<title>api/admin/routes.ts&#45;&gt;api/admin/model.ts</title>
<path fill="none" stroke="#757575" d="M358.71,-321.02C450.34,-321.76 617.47,-323.11 714.27,-323.9"/>
<polygon fill="#757575" stroke="#757575" points="714.24,-327.4 724.27,-323.98 714.3,-320.4 714.24,-327.4"/>
</g>
<!-- api/words/utils.ts -->
<g id="node5" class="node">
<title>api/words/utils.ts</title>
<path fill="none" stroke="#cfffac" d="M591.83,-296C591.83,-296 491.17,-296 491.17,-296 487.33,-296 483.5,-292.17 483.5,-288.33 483.5,-288.33 483.5,-280.67 483.5,-280.67 483.5,-276.83 487.33,-273 491.17,-273 491.17,-273 591.83,-273 591.83,-273 595.67,-273 599.5,-276.83 599.5,-280.67 599.5,-280.67 599.5,-288.33 599.5,-288.33 599.5,-292.17 595.67,-296 591.83,-296"/>
<text text-anchor="middle" x="541.5" y="-280.8" font-family="Arial" font-size="14.00" fill="#cfffac">api/words/utils.ts</text>
</g>
<!-- api/admin/routes.ts&#45;&gt;api/words/utils.ts -->
<g id="edge3" class="edge">
<title>api/admin/routes.ts&#45;&gt;api/words/utils.ts</title>
<path fill="none" stroke="#757575" d="M358.76,-311.04C393.95,-305.9 437.41,-299.56 473.01,-294.36"/>
<polygon fill="#757575" stroke="#757575" points="473.91,-297.76 483.3,-292.85 472.9,-290.84 473.91,-297.76"/>
</g>
<!-- api/auth/routes.ts -->
<g id="node6" class="node">
<title>api/auth/routes.ts</title>
<path fill="none" stroke="#c6c5fe" d="M345.33,-578C345.33,-578 240.67,-578 240.67,-578 236.83,-578 233,-574.17 233,-570.33 233,-570.33 233,-562.67 233,-562.67 233,-558.83 236.83,-555 240.67,-555 240.67,-555 345.33,-555 345.33,-555 349.17,-555 353,-558.83 353,-562.67 353,-562.67 353,-570.33 353,-570.33 353,-574.17 349.17,-578 345.33,-578"/>
<text text-anchor="middle" x="293" y="-562.8" font-family="Arial" font-size="14.00" fill="#c6c5fe">api/auth/routes.ts</text>
</g>
<!-- api/auth/secrets.ts -->
<g id="node7" class="node">
<title>api/auth/secrets.ts</title>
<path fill="none" stroke="#cfffac" d="M845.33,-607C845.33,-607 734.67,-607 734.67,-607 730.83,-607 727,-603.17 727,-599.33 727,-599.33 727,-591.67 727,-591.67 727,-587.83 730.83,-584 734.67,-584 734.67,-584 845.33,-584 845.33,-584 849.17,-584 853,-587.83 853,-591.67 853,-591.67 853,-599.33 853,-599.33 853,-603.17 849.17,-607 845.33,-607"/>
<text text-anchor="middle" x="790" y="-591.8" font-family="Arial" font-size="14.00" fill="#cfffac">api/auth/secrets.ts</text>
</g>
<!-- api/auth/routes.ts&#45;&gt;api/auth/secrets.ts -->
<g id="edge4" class="edge">
<title>api/auth/routes.ts&#45;&gt;api/auth/secrets.ts</title>
<path fill="none" stroke="#757575" d="M353.22,-569.67C423.88,-573.49 545.57,-580.19 650,-586.5 671.67,-587.81 695.24,-589.31 716.71,-590.7"/>
<polygon fill="#757575" stroke="#757575" points="716.53,-594.2 726.73,-591.35 716.98,-587.21 716.53,-594.2"/>
</g>
<!-- api/auth/utils.ts -->
<g id="node8" class="node">
<title>api/auth/utils.ts</title>
<path fill="none" stroke="#c6c5fe" d="M587.33,-618C587.33,-618 495.67,-618 495.67,-618 491.83,-618 488,-614.17 488,-610.33 488,-610.33 488,-602.67 488,-602.67 488,-598.83 491.83,-595 495.67,-595 495.67,-595 587.33,-595 587.33,-595 591.17,-595 595,-598.83 595,-602.67 595,-602.67 595,-610.33 595,-610.33 595,-614.17 591.17,-618 587.33,-618"/>
<text text-anchor="middle" x="541.5" y="-602.8" font-family="Arial" font-size="14.00" fill="#c6c5fe">api/auth/utils.ts</text>
</g>
<!-- api/auth/routes.ts&#45;&gt;api/auth/utils.ts -->
<g id="edge5" class="edge">
<title>api/auth/routes.ts&#45;&gt;api/auth/utils.ts</title>
<path fill="none" stroke="#757575" d="M353.04,-576.08C390.7,-582.19 439.45,-590.1 477.79,-596.32"/>
<polygon fill="#757575" stroke="#757575" points="477.38,-599.8 487.81,-597.95 478.5,-592.89 477.38,-599.8"/>
</g>
<!-- api/player/model.ts -->
<g id="node9" class="node">
<title>api/player/model.ts</title>
<path fill="none" stroke="#c6c5fe" d="M847.83,-653C847.83,-653 732.17,-653 732.17,-653 728.33,-653 724.5,-649.17 724.5,-645.33 724.5,-645.33 724.5,-637.67 724.5,-637.67 724.5,-633.83 728.33,-630 732.17,-630 732.17,-630 847.83,-630 847.83,-630 851.67,-630 855.5,-633.83 855.5,-637.67 855.5,-637.67 855.5,-645.33 855.5,-645.33 855.5,-649.17 851.67,-653 847.83,-653"/>
<text text-anchor="middle" x="790" y="-637.8" font-family="Arial" font-size="14.00" fill="#c6c5fe">api/player/model.ts</text>
</g>
<!-- api/auth/routes.ts&#45;&gt;api/player/model.ts -->
<g id="edge6" class="edge">
<title>api/auth/routes.ts&#45;&gt;api/player/model.ts</title>
<path fill="none" stroke="#757575" d="M313.89,-578.1C340.16,-592.72 388.32,-617.21 433,-627.5 528.27,-649.45 641.61,-649.63 714.39,-646.56"/>
<polygon fill="#757575" stroke="#757575" points="714.55,-650.05 724.38,-646.1 714.24,-643.06 714.55,-650.05"/>
</g>
<!-- api/rounds/model.ts -->
<g id="node10" class="node">
<title>api/rounds/model.ts</title>
<path fill="none" stroke="#c6c5fe" d="M601.33,-538C601.33,-538 481.67,-538 481.67,-538 477.83,-538 474,-534.17 474,-530.33 474,-530.33 474,-522.67 474,-522.67 474,-518.83 477.83,-515 481.67,-515 481.67,-515 601.33,-515 601.33,-515 605.17,-515 609,-518.83 609,-522.67 609,-522.67 609,-530.33 609,-530.33 609,-534.17 605.17,-538 601.33,-538"/>
<text text-anchor="middle" x="541.5" y="-522.8" font-family="Arial" font-size="14.00" fill="#c6c5fe">api/rounds/model.ts</text>
</g>
<!-- api/auth/routes.ts&#45;&gt;api/rounds/model.ts -->
<g id="edge7" class="edge">
<title>api/auth/routes.ts&#45;&gt;api/rounds/model.ts</title>
<path fill="none" stroke="#757575" d="M353.04,-556.92C386.24,-551.53 428.06,-544.75 463.78,-538.95"/>
<polygon fill="#757575" stroke="#757575" points="464.37,-542.4 473.68,-537.34 463.24,-535.49 464.37,-542.4"/>
</g>
<!-- api/userRounds/model.ts -->
<g id="node11" class="node">
<title>api/userRounds/model.ts</title>
<path fill="none" stroke="#c6c5fe" d="M617.33,-497C617.33,-497 465.67,-497 465.67,-497 461.83,-497 458,-493.17 458,-489.33 458,-489.33 458,-481.67 458,-481.67 458,-477.83 461.83,-474 465.67,-474 465.67,-474 617.33,-474 617.33,-474 621.17,-474 625,-477.83 625,-481.67 625,-481.67 625,-489.33 625,-489.33 625,-493.17 621.17,-497 617.33,-497"/>
<text text-anchor="middle" x="541.5" y="-481.8" font-family="Arial" font-size="14.00" fill="#c6c5fe">api/userRounds/model.ts</text>
</g>
<!-- api/auth/routes.ts&#45;&gt;api/userRounds/model.ts -->
<g id="edge8" class="edge">
<title>api/auth/routes.ts&#45;&gt;api/userRounds/model.ts</title>
<path fill="none" stroke="#757575" d="M353.24,-561.7C368.2,-558.72 383.76,-553.99 397,-546.5 417.82,-534.72 412.19,-518.29 433,-506.5 437.81,-503.78 442.91,-501.4 448.18,-499.33"/>
<polygon fill="#757575" stroke="#757575" points="449.55,-502.55 457.81,-495.92 447.21,-495.96 449.55,-502.55"/>
</g>
<!-- api/auth/utils.ts&#45;&gt;api/auth/secrets.ts -->
<g id="edge9" class="edge">
<title>api/auth/utils.ts&#45;&gt;api/auth/secrets.ts</title>
<path fill="none" stroke="#757575" d="M595.08,-604.15C630.51,-602.57 677.72,-600.47 716.68,-598.73"/>
<polygon fill="#757575" stroke="#757575" points="717.08,-602.21 726.92,-598.27 716.77,-595.22 717.08,-602.21"/>
</g>
<!-- api/auth/utils.ts&#45;&gt;api/player/model.ts -->
<g id="edge10" class="edge">
<title>api/auth/utils.ts&#45;&gt;api/player/model.ts</title>
<path fill="none" stroke="#757575" d="M595.08,-613.97C629.73,-618.89 675.65,-625.41 714.1,-630.87"/>
<polygon fill="#757575" stroke="#757575" points="713.83,-634.36 724.22,-632.3 714.81,-627.43 713.83,-634.36"/>
</g>
<!-- api/player/model.ts&#45;&gt;dbConfig.ts -->
<g id="edge23" class="edge">
<title>api/player/model.ts&#45;&gt;dbConfig.ts</title>
<path fill="none" stroke="#757575" d="M855.63,-636.3C869.65,-632.5 883.43,-626.34 894,-616.5 973.67,-542.35 985.72,-400.39 987.34,-346.23"/>
<polygon fill="#757575" stroke="#757575" points="990.85,-346.13 987.55,-336.06 983.85,-345.98 990.85,-346.13"/>
</g>
<!-- api/player/utils.ts -->
<g id="node24" class="node">
<title>api/player/utils.ts</title>
<path fill="none" stroke="#cfffac" d="M1039.33,-653C1039.33,-653 937.67,-653 937.67,-653 933.83,-653 930,-649.17 930,-645.33 930,-645.33 930,-637.67 930,-637.67 930,-633.83 933.83,-630 937.67,-630 937.67,-630 1039.33,-630 1039.33,-630 1043.17,-630 1047,-633.83 1047,-637.67 1047,-637.67 1047,-645.33 1047,-645.33 1047,-649.17 1043.17,-653 1039.33,-653"/>
<text text-anchor="middle" x="988.5" y="-637.8" font-family="Arial" font-size="14.00" fill="#cfffac">api/player/utils.ts</text>
</g>
<!-- api/player/model.ts&#45;&gt;api/player/utils.ts -->
<g id="edge22" class="edge">
<title>api/player/model.ts&#45;&gt;api/player/utils.ts</title>
<path fill="none" stroke="#757575" d="M855.61,-641.5C876.19,-641.5 898.99,-641.5 919.78,-641.5"/>
<polygon fill="#757575" stroke="#757575" points="919.8,-645 929.8,-641.5 919.8,-638 919.8,-645"/>
</g>
<!-- api/rounds/model.ts&#45;&gt;dbConfig.ts -->
<g id="edge28" class="edge">
<title>api/rounds/model.ts&#45;&gt;dbConfig.ts</title>
<path fill="none" stroke="#757575" d="M577.85,-538.02C645.37,-557.72 794.76,-589.92 894,-526.5 957.5,-485.92 978.52,-389.94 984.92,-346.51"/>
<polygon fill="#757575" stroke="#757575" points="988.41,-346.82 986.28,-336.44 981.48,-345.88 988.41,-346.82"/>
</g>
<!-- api/rounds/utils.ts -->
<g id="node28" class="node">
<title>api/rounds/utils.ts</title>
<path fill="none" stroke="#cfffac" d="M843.33,-517C843.33,-517 736.67,-517 736.67,-517 732.83,-517 729,-513.17 729,-509.33 729,-509.33 729,-501.67 729,-501.67 729,-497.83 732.83,-494 736.67,-494 736.67,-494 843.33,-494 843.33,-494 847.17,-494 851,-497.83 851,-501.67 851,-501.67 851,-509.33 851,-509.33 851,-513.17 847.17,-517 843.33,-517"/>
<text text-anchor="middle" x="790" y="-501.8" font-family="Arial" font-size="14.00" fill="#cfffac">api/rounds/utils.ts</text>
</g>
<!-- api/rounds/model.ts&#45;&gt;api/rounds/utils.ts -->
<g id="edge27" class="edge">
<title>api/rounds/model.ts&#45;&gt;api/rounds/utils.ts</title>
<path fill="none" stroke="#757575" d="M609.21,-520.82C643.21,-517.92 684.54,-514.4 718.99,-511.46"/>
<polygon fill="#757575" stroke="#757575" points="719.32,-514.95 728.98,-510.61 718.72,-507.97 719.32,-514.95"/>
</g>
<!-- api/userRounds/model.ts&#45;&gt;dbConfig.ts -->
<g id="edge31" class="edge">
<title>api/userRounds/model.ts&#45;&gt;dbConfig.ts</title>
<path fill="none" stroke="#757575" d="M625.02,-483.74C714.19,-480.56 849.48,-471.62 894,-446.5 935.19,-423.26 964.16,-373.72 978.09,-345.44"/>
<polygon fill="#757575" stroke="#757575" points="981.41,-346.61 982.54,-336.07 975.09,-343.6 981.41,-346.61"/>
</g>
<!-- api/played/model.ts -->
<g id="node22" class="node">
<title>api/played/model.ts</title>
<path fill="none" stroke="#c6c5fe" d="M849.33,-437C849.33,-437 730.67,-437 730.67,-437 726.83,-437 723,-433.17 723,-429.33 723,-429.33 723,-421.67 723,-421.67 723,-417.83 726.83,-414 730.67,-414 730.67,-414 849.33,-414 849.33,-414 853.17,-414 857,-417.83 857,-421.67 857,-421.67 857,-429.33 857,-429.33 857,-433.17 853.17,-437 849.33,-437"/>
<text text-anchor="middle" x="790" y="-421.8" font-family="Arial" font-size="14.00" fill="#c6c5fe">api/played/model.ts</text>
</g>
<!-- api/userRounds/model.ts&#45;&gt;api/played/model.ts -->
<g id="edge30" class="edge">
<title>api/userRounds/model.ts&#45;&gt;api/played/model.ts</title>
<path fill="none" stroke="#757575" d="M590.4,-473.94C609.01,-469.45 630.5,-464.24 650,-459.5 677.06,-452.92 707.08,-445.58 732.28,-439.41"/>
<polygon fill="#757575" stroke="#757575" points="733.16,-442.8 742.04,-437.02 731.49,-436 733.16,-442.8"/>
</g>
<!-- api/clever/routes.ts -->
<g id="node12" class="node">
<title>api/clever/routes.ts</title>
<path fill="none" stroke="#c6c5fe" d="M350.33,-414C350.33,-414 235.67,-414 235.67,-414 231.83,-414 228,-410.17 228,-406.33 228,-406.33 228,-398.67 228,-398.67 228,-394.83 231.83,-391 235.67,-391 235.67,-391 350.33,-391 350.33,-391 354.17,-391 358,-394.83 358,-398.67 358,-398.67 358,-406.33 358,-406.33 358,-410.17 354.17,-414 350.33,-414"/>
<text text-anchor="middle" x="293" y="-398.8" font-family="Arial" font-size="14.00" fill="#c6c5fe">api/clever/routes.ts</text>
</g>
<!-- api/middleware/cleverRequired.ts -->
<g id="node13" class="node">
<title>api/middleware/cleverRequired.ts</title>
<path fill="none" stroke="#cfffac" d="M642.33,-417C642.33,-417 440.67,-417 440.67,-417 436.83,-417 433,-413.17 433,-409.33 433,-409.33 433,-401.67 433,-401.67 433,-397.83 436.83,-394 440.67,-394 440.67,-394 642.33,-394 642.33,-394 646.17,-394 650,-397.83 650,-401.67 650,-401.67 650,-409.33 650,-409.33 650,-413.17 646.17,-417 642.33,-417"/>
<text text-anchor="middle" x="541.5" y="-401.8" font-family="Arial" font-size="14.00" fill="#cfffac">api/middleware/cleverRequired.ts</text>
</g>
<!-- api/clever/routes.ts&#45;&gt;api/middleware/cleverRequired.ts -->
<g id="edge11" class="edge">
<title>api/clever/routes.ts&#45;&gt;api/middleware/cleverRequired.ts</title>
<path fill="none" stroke="#757575" d="M358.12,-403.28C377.91,-403.52 400.37,-403.79 422.6,-404.07"/>
<polygon fill="#757575" stroke="#757575" points="422.74,-407.57 432.78,-404.19 422.83,-400.57 422.74,-407.57"/>
</g>
<!-- api/definitionReactions/model.ts -->
<g id="node14" class="node">
<title>api/definitionReactions/model.ts</title>
<path fill="none" stroke="#c6c5fe" d="M886.33,-248C886.33,-248 693.67,-248 693.67,-248 689.83,-248 686,-244.17 686,-240.33 686,-240.33 686,-232.67 686,-232.67 686,-228.83 689.83,-225 693.67,-225 693.67,-225 886.33,-225 886.33,-225 890.17,-225 894,-228.83 894,-232.67 894,-232.67 894,-240.33 894,-240.33 894,-244.17 890.17,-248 886.33,-248"/>
<text text-anchor="middle" x="790" y="-232.8" font-family="Arial" font-size="14.00" fill="#c6c5fe">api/definitionReactions/model.ts</text>
</g>
<!-- api/definitionReactions/model.ts&#45;&gt;dbConfig.ts -->
<g id="edge12" class="edge">
<title>api/definitionReactions/model.ts&#45;&gt;dbConfig.ts</title>
<path fill="none" stroke="#757575" d="M857.02,-248.04C869.58,-251.3 882.4,-255.4 894,-260.5 920.61,-272.21 947.67,-291.74 965.78,-306.15"/>
<polygon fill="#757575" stroke="#757575" points="963.94,-309.16 973.91,-312.75 968.35,-303.73 963.94,-309.16"/>
</g>
<!-- api/definitionReactions/routes.ts -->
<g id="node15" class="node">
<title>api/definitionReactions/routes.ts</title>
<path fill="none" stroke="#c6c5fe" d="M389.33,-233C389.33,-233 196.67,-233 196.67,-233 192.83,-233 189,-229.17 189,-225.33 189,-225.33 189,-217.67 189,-217.67 189,-213.83 192.83,-210 196.67,-210 196.67,-210 389.33,-210 389.33,-210 393.17,-210 397,-213.83 397,-217.67 397,-217.67 397,-225.33 397,-225.33 397,-229.17 393.17,-233 389.33,-233"/>
<text text-anchor="middle" x="293" y="-217.8" font-family="Arial" font-size="14.00" fill="#c6c5fe">api/definitionReactions/routes.ts</text>
</g>
<!-- api/definitionReactions/routes.ts&#45;&gt;api/definitionReactions/model.ts -->
<g id="edge13" class="edge">
<title>api/definitionReactions/routes.ts&#45;&gt;api/definitionReactions/model.ts</title>
<path fill="none" stroke="#757575" d="M362.48,-209.94C374.13,-207.29 386,-204.16 397,-200.5 413.79,-194.91 415.73,-187.37 433,-183.5 527.11,-162.4 557.69,-155.55 650,-183.5 668.4,-189.07 668.53,-199.46 686,-207.5 698.63,-213.31 712.68,-218.2 726.23,-222.22"/>
<polygon fill="#757575" stroke="#757575" points="725.42,-225.62 735.99,-224.98 727.33,-218.89 725.42,-225.62"/>
</g>
<!-- api/definitionReactions/utils.ts -->
<g id="node16" class="node">
<title>api/definitionReactions/utils.ts</title>
<path fill="none" stroke="#cfffac" d="M630.83,-216C630.83,-216 452.17,-216 452.17,-216 448.33,-216 444.5,-212.17 444.5,-208.33 444.5,-208.33 444.5,-200.67 444.5,-200.67 444.5,-196.83 448.33,-193 452.17,-193 452.17,-193 630.83,-193 630.83,-193 634.67,-193 638.5,-196.83 638.5,-200.67 638.5,-200.67 638.5,-208.33 638.5,-208.33 638.5,-212.17 634.67,-216 630.83,-216"/>
<text text-anchor="middle" x="541.5" y="-200.8" font-family="Arial" font-size="14.00" fill="#cfffac">api/definitionReactions/utils.ts</text>
</g>
<!-- api/definitionReactions/routes.ts&#45;&gt;api/definitionReactions/utils.ts -->
<g id="edge14" class="edge">
<title>api/definitionReactions/routes.ts&#45;&gt;api/definitionReactions/utils.ts</title>
<path fill="none" stroke="#757575" d="M397.11,-214.39C409.38,-213.54 421.91,-212.68 434.22,-211.83"/>
<polygon fill="#757575" stroke="#757575" points="434.76,-215.3 444.5,-211.12 434.28,-208.32 434.76,-215.3"/>
</g>
<!-- api/definitions/model.ts -->
<g id="node17" class="node">
<title>api/definitions/model.ts</title>
<path fill="none" stroke="#c6c5fe" d="M611.33,-57C611.33,-57 471.67,-57 471.67,-57 467.83,-57 464,-53.17 464,-49.33 464,-49.33 464,-41.67 464,-41.67 464,-37.83 467.83,-34 471.67,-34 471.67,-34 611.33,-34 611.33,-34 615.17,-34 619,-37.83 619,-41.67 619,-41.67 619,-49.33 619,-49.33 619,-53.17 615.17,-57 611.33,-57"/>
<text text-anchor="middle" x="541.5" y="-41.8" font-family="Arial" font-size="14.00" fill="#c6c5fe">api/definitions/model.ts</text>
</g>
<!-- api/definitions/model.ts&#45;&gt;dbConfig.ts -->
<g id="edge16" class="edge">
<title>api/definitions/model.ts&#45;&gt;dbConfig.ts</title>
<path fill="none" stroke="#757575" d="M619.22,-43.26C709.47,-42.17 852.29,-45.8 894,-77.5 967.32,-133.22 983.15,-253.56 986.56,-302.81"/>
<polygon fill="#757575" stroke="#757575" points="983.08,-303.18 987.15,-312.96 990.06,-302.78 983.08,-303.18"/>
</g>
<!-- api/definitions/utils.ts -->
<g id="node18" class="node">
<title>api/definitions/utils.ts</title>
<path fill="none" stroke="#cfffac" d="M852.83,-23C852.83,-23 727.17,-23 727.17,-23 723.33,-23 719.5,-19.17 719.5,-15.33 719.5,-15.33 719.5,-7.67 719.5,-7.67 719.5,-3.83 723.33,0 727.17,0 727.17,0 852.83,0 852.83,0 856.67,0 860.5,-3.83 860.5,-7.67 860.5,-7.67 860.5,-15.33 860.5,-15.33 860.5,-19.17 856.67,-23 852.83,-23"/>
<text text-anchor="middle" x="790" y="-7.8" font-family="Arial" font-size="14.00" fill="#cfffac">api/definitions/utils.ts</text>
</g>
<!-- api/definitions/model.ts&#45;&gt;api/definitions/utils.ts -->
<g id="edge15" class="edge">
<title>api/definitions/model.ts&#45;&gt;api/definitions/utils.ts</title>
<path fill="none" stroke="#757575" d="M619.14,-34.93C647.71,-30.99 680.21,-26.51 709.07,-22.53"/>
<polygon fill="#757575" stroke="#757575" points="709.68,-25.97 719.11,-21.14 708.73,-19.04 709.68,-25.97"/>
</g>
<!-- api/definitions/routes.ts -->
<g id="node19" class="node">
<title>api/definitions/routes.ts</title>
<path fill="none" stroke="#c6c5fe" d="M362.83,-110C362.83,-110 223.17,-110 223.17,-110 219.33,-110 215.5,-106.17 215.5,-102.33 215.5,-102.33 215.5,-94.67 215.5,-94.67 215.5,-90.83 219.33,-87 223.17,-87 223.17,-87 362.83,-87 362.83,-87 366.67,-87 370.5,-90.83 370.5,-94.67 370.5,-94.67 370.5,-102.33 370.5,-102.33 370.5,-106.17 366.67,-110 362.83,-110"/>
<text text-anchor="middle" x="293" y="-94.8" font-family="Arial" font-size="14.00" fill="#c6c5fe">api/definitions/routes.ts</text>
</g>
<!-- api/definitions/routes.ts&#45;&gt;api/definitions/model.ts -->
<g id="edge17" class="edge">
<title>api/definitions/routes.ts&#45;&gt;api/definitions/model.ts</title>
<path fill="none" stroke="#757575" d="M356.65,-86.99C370.03,-84.17 384.04,-80.97 397,-77.5 413.29,-73.14 416.67,-69.72 433,-65.5 442,-63.17 451.5,-61.01 460.96,-59.02"/>
<polygon fill="#757575" stroke="#757575" points="461.7,-62.44 470.8,-57.02 460.3,-55.58 461.7,-62.44"/>
</g>
<!-- api/game/model.ts -->
<g id="node20" class="node">
<title>api/game/model.ts</title>
<path fill="none" stroke="#c6c5fe" d="M846.33,-199C846.33,-199 733.67,-199 733.67,-199 729.83,-199 726,-195.17 726,-191.33 726,-191.33 726,-183.67 726,-183.67 726,-179.83 729.83,-176 733.67,-176 733.67,-176 846.33,-176 846.33,-176 850.17,-176 854,-179.83 854,-183.67 854,-183.67 854,-191.33 854,-191.33 854,-195.17 850.17,-199 846.33,-199"/>
<text text-anchor="middle" x="790" y="-183.8" font-family="Arial" font-size="14.00" fill="#c6c5fe">api/game/model.ts</text>
</g>
<!-- api/game/model.ts&#45;&gt;dbConfig.ts -->
<g id="edge18" class="edge">
<title>api/game/model.ts&#45;&gt;dbConfig.ts</title>
<path fill="none" stroke="#757575" d="M854.23,-198.32C868,-202.38 882.02,-207.93 894,-215.5 930.26,-238.41 960,-279.75 975.62,-304.4"/>
<polygon fill="#757575" stroke="#757575" points="972.67,-306.29 980.9,-312.96 978.63,-302.61 972.67,-306.29"/>
</g>
<!-- api/game/routes.ts -->
<g id="node21" class="node">
<title>api/game/routes.ts</title>
<path fill="none" stroke="#c6c5fe" d="M349.33,-192C349.33,-192 236.67,-192 236.67,-192 232.83,-192 229,-188.17 229,-184.33 229,-184.33 229,-176.67 229,-176.67 229,-172.83 232.83,-169 236.67,-169 236.67,-169 349.33,-169 349.33,-169 353.17,-169 357,-172.83 357,-176.67 357,-176.67 357,-184.33 357,-184.33 357,-188.17 353.17,-192 349.33,-192"/>
<text text-anchor="middle" x="293" y="-176.8" font-family="Arial" font-size="14.00" fill="#c6c5fe">api/game/routes.ts</text>
</g>
<!-- api/game/routes.ts&#45;&gt;api/game/model.ts -->
<g id="edge19" class="edge">
<title>api/game/routes.ts&#45;&gt;api/game/model.ts</title>
<path fill="none" stroke="#757575" d="M352.92,-168.95C367.36,-165.99 382.76,-162.73 397,-159.5 413.08,-155.85 416.63,-152.52 433,-150.5 528.72,-138.72 554.37,-137.99 650,-150.5 682.75,-154.78 718.76,-164.52 745.92,-172.93"/>
<polygon fill="#757575" stroke="#757575" points="744.92,-176.28 755.51,-175.95 747.02,-169.6 744.92,-176.28"/>
</g>
<!-- api/played/model.ts&#45;&gt;dbConfig.ts -->
<g id="edge20" class="edge">
<title>api/played/model.ts&#45;&gt;dbConfig.ts</title>
<path fill="none" stroke="#757575" d="M818.45,-413.83C839.4,-404.72 868.84,-391.47 894,-378.5 916.66,-366.82 941.64,-352.31 960.07,-341.27"/>
<polygon fill="#757575" stroke="#757575" points="962.05,-344.16 968.81,-336 958.44,-338.17 962.05,-344.16"/>
</g>
<!-- api/played/routes.ts -->
<g id="node23" class="node">
<title>api/played/routes.ts</title>
<path fill="none" stroke="#c6c5fe" d="M352.33,-455C352.33,-455 233.67,-455 233.67,-455 229.83,-455 226,-451.17 226,-447.33 226,-447.33 226,-439.67 226,-439.67 226,-435.83 229.83,-432 233.67,-432 233.67,-432 352.33,-432 352.33,-432 356.17,-432 360,-435.83 360,-439.67 360,-439.67 360,-447.33 360,-447.33 360,-451.17 356.17,-455 352.33,-455"/>
<text text-anchor="middle" x="293" y="-439.8" font-family="Arial" font-size="14.00" fill="#c6c5fe">api/played/routes.ts</text>
</g>
<!-- api/played/routes.ts&#45;&gt;api/played/model.ts -->
<g id="edge21" class="edge">
<title>api/played/routes.ts&#45;&gt;api/played/model.ts</title>
<path fill="none" stroke="#757575" d="M360.24,-441.09C451.62,-437.77 615.97,-431.79 712.48,-428.28"/>
<polygon fill="#757575" stroke="#757575" points="712.89,-431.77 722.75,-427.91 712.63,-424.77 712.89,-431.77"/>
</g>
<!-- api/player/routes.ts -->
<g id="node25" class="node">
<title>api/player/routes.ts</title>
<path fill="none" stroke="#c6c5fe" d="M599.33,-698C599.33,-698 483.67,-698 483.67,-698 479.83,-698 476,-694.17 476,-690.33 476,-690.33 476,-682.67 476,-682.67 476,-678.83 479.83,-675 483.67,-675 483.67,-675 599.33,-675 599.33,-675 603.17,-675 607,-678.83 607,-682.67 607,-682.67 607,-690.33 607,-690.33 607,-694.17 603.17,-698 599.33,-698"/>
<text text-anchor="middle" x="541.5" y="-682.8" font-family="Arial" font-size="14.00" fill="#c6c5fe">api/player/routes.ts</text>
</g>
<!-- api/player/routes.ts&#45;&gt;api/player/model.ts -->
<g id="edge24" class="edge">
<title>api/player/routes.ts&#45;&gt;api/player/model.ts</title>
<path fill="none" stroke="#757575" d="M605.66,-674.97C639.29,-668.83 680.81,-661.25 715.84,-654.86"/>
<polygon fill="#757575" stroke="#757575" points="716.8,-658.24 726,-653 715.54,-651.35 716.8,-658.24"/>
</g>
<!-- api/reactions/model.ts -->
<g id="node26" class="node">
<title>api/reactions/model.ts</title>
<path fill="none" stroke="#c6c5fe" d="M608.33,-376C608.33,-376 474.67,-376 474.67,-376 470.83,-376 467,-372.17 467,-368.33 467,-368.33 467,-360.67 467,-360.67 467,-356.83 470.83,-353 474.67,-353 474.67,-353 608.33,-353 608.33,-353 612.17,-353 616,-356.83 616,-360.67 616,-360.67 616,-368.33 616,-368.33 616,-372.17 612.17,-376 608.33,-376"/>
<text text-anchor="middle" x="541.5" y="-360.8" font-family="Arial" font-size="14.00" fill="#c6c5fe">api/reactions/model.ts</text>
</g>
<!-- api/reactions/model.ts&#45;&gt;dbConfig.ts -->
<g id="edge25" class="edge">
<title>api/reactions/model.ts&#45;&gt;dbConfig.ts</title>
<path fill="none" stroke="#757575" d="M616.19,-363.6C687.53,-361.95 798.59,-357.34 894,-344.5 907.63,-342.67 922.24,-339.92 935.76,-337.05"/>
<polygon fill="#757575" stroke="#757575" points="936.83,-340.4 945.85,-334.84 935.33,-333.56 936.83,-340.4"/>
</g>
<!-- api/reactions/routes.ts -->
<g id="node27" class="node">
<title>api/reactions/routes.ts</title>
<path fill="none" stroke="#c6c5fe" d="M359.83,-373C359.83,-373 226.17,-373 226.17,-373 222.33,-373 218.5,-369.17 218.5,-365.33 218.5,-365.33 218.5,-357.67 218.5,-357.67 218.5,-353.83 222.33,-350 226.17,-350 226.17,-350 359.83,-350 359.83,-350 363.67,-350 367.5,-353.83 367.5,-357.67 367.5,-357.67 367.5,-365.33 367.5,-365.33 367.5,-369.17 363.67,-373 359.83,-373"/>
<text text-anchor="middle" x="293" y="-357.8" font-family="Arial" font-size="14.00" fill="#c6c5fe">api/reactions/routes.ts</text>
</g>
<!-- api/reactions/routes.ts&#45;&gt;api/reactions/model.ts -->
<g id="edge26" class="edge">
<title>api/reactions/routes.ts&#45;&gt;api/reactions/model.ts</title>
<path fill="none" stroke="#757575" d="M367.62,-362.4C395.67,-362.74 427.83,-363.13 456.75,-363.48"/>
<polygon fill="#757575" stroke="#757575" points="456.79,-366.98 466.83,-363.6 456.87,-359.98 456.79,-366.98"/>
</g>
<!-- api/rounds/routes.ts -->
<g id="node29" class="node">
<title>api/rounds/routes.ts</title>
<path fill="none" stroke="#c6c5fe" d="M352.83,-537C352.83,-537 233.17,-537 233.17,-537 229.33,-537 225.5,-533.17 225.5,-529.33 225.5,-529.33 225.5,-521.67 225.5,-521.67 225.5,-517.83 229.33,-514 233.17,-514 233.17,-514 352.83,-514 352.83,-514 356.67,-514 360.5,-517.83 360.5,-521.67 360.5,-521.67 360.5,-529.33 360.5,-529.33 360.5,-533.17 356.67,-537 352.83,-537"/>
<text text-anchor="middle" x="293" y="-521.8" font-family="Arial" font-size="14.00" fill="#c6c5fe">api/rounds/routes.ts</text>
</g>
<!-- api/rounds/routes.ts&#45;&gt;api/rounds/model.ts -->
<g id="edge29" class="edge">
<title>api/rounds/routes.ts&#45;&gt;api/rounds/model.ts</title>
<path fill="none" stroke="#757575" d="M360.71,-525.77C392.49,-525.9 430.69,-526.05 463.68,-526.19"/>
<polygon fill="#757575" stroke="#757575" points="463.73,-529.69 473.74,-526.23 463.75,-522.69 463.73,-529.69"/>
</g>
<!-- api/userRounds/routes.ts -->
<g id="node30" class="node">
<title>api/userRounds/routes.ts</title>
<path fill="none" stroke="#c6c5fe" d="M368.83,-496C368.83,-496 217.17,-496 217.17,-496 213.33,-496 209.5,-492.17 209.5,-488.33 209.5,-488.33 209.5,-480.67 209.5,-480.67 209.5,-476.83 213.33,-473 217.17,-473 217.17,-473 368.83,-473 368.83,-473 372.67,-473 376.5,-476.83 376.5,-480.67 376.5,-480.67 376.5,-488.33 376.5,-488.33 376.5,-492.17 372.67,-496 368.83,-496"/>
<text text-anchor="middle" x="293" y="-480.8" font-family="Arial" font-size="14.00" fill="#c6c5fe">api/userRounds/routes.ts</text>
</g>
<!-- api/userRounds/routes.ts&#45;&gt;api/userRounds/model.ts -->
<g id="edge32" class="edge">
<title>api/userRounds/routes.ts&#45;&gt;api/userRounds/model.ts</title>
<path fill="none" stroke="#757575" d="M376.77,-484.84C399.55,-484.93 424.41,-485.03 447.72,-485.12"/>
<polygon fill="#757575" stroke="#757575" points="447.94,-488.62 457.95,-485.17 447.97,-481.62 447.94,-488.62"/>
</g>
<!-- api/votes/model.ts -->
<g id="node31" class="node">
<title>api/votes/model.ts</title>
<path fill="none" stroke="#c6c5fe" d="M596.83,-98C596.83,-98 486.17,-98 486.17,-98 482.33,-98 478.5,-94.17 478.5,-90.33 478.5,-90.33 478.5,-82.67 478.5,-82.67 478.5,-78.83 482.33,-75 486.17,-75 486.17,-75 596.83,-75 596.83,-75 600.67,-75 604.5,-78.83 604.5,-82.67 604.5,-82.67 604.5,-90.33 604.5,-90.33 604.5,-94.17 600.67,-98 596.83,-98"/>
<text text-anchor="middle" x="541.5" y="-82.8" font-family="Arial" font-size="14.00" fill="#c6c5fe">api/votes/model.ts</text>
</g>
<!-- api/votes/model.ts&#45;&gt;dbConfig.ts -->
<g id="edge34" class="edge">
<title>api/votes/model.ts&#45;&gt;dbConfig.ts</title>
<path fill="none" stroke="#757575" d="M604.77,-82.82C693.06,-78.85 848.91,-76.82 894,-108.5 959.81,-154.73 979.69,-257.55 985.37,-302.62"/>
<polygon fill="#757575" stroke="#757575" points="981.92,-303.22 986.53,-312.76 988.87,-302.43 981.92,-303.22"/>
</g>
<!-- api/votes/utils.ts -->
<g id="node32" class="node">
<title>api/votes/utils.ts</title>
<path fill="none" stroke="#cfffac" d="M838.83,-141C838.83,-141 741.17,-141 741.17,-141 737.33,-141 733.5,-137.17 733.5,-133.33 733.5,-133.33 733.5,-125.67 733.5,-125.67 733.5,-121.83 737.33,-118 741.17,-118 741.17,-118 838.83,-118 838.83,-118 842.67,-118 846.5,-121.83 846.5,-125.67 846.5,-125.67 846.5,-133.33 846.5,-133.33 846.5,-137.17 842.67,-141 838.83,-141"/>
<text text-anchor="middle" x="790" y="-125.8" font-family="Arial" font-size="14.00" fill="#cfffac">api/votes/utils.ts</text>
</g>
<!-- api/votes/model.ts&#45;&gt;api/votes/utils.ts -->
<g id="edge33" class="edge">
<title>api/votes/model.ts&#45;&gt;api/votes/utils.ts</title>
<path fill="none" stroke="#757575" d="M604.7,-97.35C640.81,-103.65 686.28,-111.58 723.02,-117.99"/>
<polygon fill="#757575" stroke="#757575" points="722.68,-121.48 733.13,-119.75 723.88,-114.59 722.68,-121.48"/>
</g>
<!-- api/votes/routes.ts -->
<g id="node33" class="node">
<title>api/votes/routes.ts</title>
<path fill="none" stroke="#c6c5fe" d="M348.33,-151C348.33,-151 237.67,-151 237.67,-151 233.83,-151 230,-147.17 230,-143.33 230,-143.33 230,-135.67 230,-135.67 230,-131.83 233.83,-128 237.67,-128 237.67,-128 348.33,-128 348.33,-128 352.17,-128 356,-131.83 356,-135.67 356,-135.67 356,-143.33 356,-143.33 356,-147.17 352.17,-151 348.33,-151"/>
<text text-anchor="middle" x="293" y="-135.8" font-family="Arial" font-size="14.00" fill="#c6c5fe">api/votes/routes.ts</text>
</g>
<!-- api/votes/routes.ts&#45;&gt;api/votes/model.ts -->
<g id="edge35" class="edge">
<title>api/votes/routes.ts&#45;&gt;api/votes/model.ts</title>
<path fill="none" stroke="#757575" d="M351.51,-127.97C366.34,-124.94 382.28,-121.64 397,-118.5 424.22,-112.69 454.28,-106.03 479.83,-100.29"/>
<polygon fill="#757575" stroke="#757575" points="480.76,-103.67 489.74,-98.06 479.22,-96.84 480.76,-103.67"/>
</g>
<!-- api/words/model.ts -->
<g id="node34" class="node">
<title>api/words/model.ts</title>
<path fill="none" stroke="#c6c5fe" d="M847.33,-293C847.33,-293 732.67,-293 732.67,-293 728.83,-293 725,-289.17 725,-285.33 725,-285.33 725,-277.67 725,-277.67 725,-273.83 728.83,-270 732.67,-270 732.67,-270 847.33,-270 847.33,-270 851.17,-270 855,-273.83 855,-277.67 855,-277.67 855,-285.33 855,-285.33 855,-289.17 851.17,-293 847.33,-293"/>
<text text-anchor="middle" x="790" y="-277.8" font-family="Arial" font-size="14.00" fill="#c6c5fe">api/words/model.ts</text>
</g>
<!-- api/words/model.ts&#45;&gt;dbConfig.ts -->
<g id="edge36" class="edge">
<title>api/words/model.ts&#45;&gt;dbConfig.ts</title>
<path fill="none" stroke="#757575" d="M845.55,-293.04C861.2,-296.38 878.28,-300.06 894,-303.5 907.47,-306.45 922.02,-309.69 935.53,-312.73"/>
<polygon fill="#757575" stroke="#757575" points="935.11,-316.22 945.63,-315 936.64,-309.39 935.11,-316.22"/>
</g>
<!-- api/words/routes.ts -->
<g id="node35" class="node">
<title>api/words/routes.ts</title>
<path fill="none" stroke="#c6c5fe" d="M350.33,-291C350.33,-291 235.67,-291 235.67,-291 231.83,-291 228,-287.17 228,-283.33 228,-283.33 228,-275.67 228,-275.67 228,-271.83 231.83,-268 235.67,-268 235.67,-268 350.33,-268 350.33,-268 354.17,-268 358,-271.83 358,-275.67 358,-275.67 358,-283.33 358,-283.33 358,-287.17 354.17,-291 350.33,-291"/>
<text text-anchor="middle" x="293" y="-275.8" font-family="Arial" font-size="14.00" fill="#c6c5fe">api/words/routes.ts</text>
</g>
<!-- api/words/routes.ts&#45;&gt;api/words/utils.ts -->
<g id="edge38" class="edge">
<title>api/words/routes.ts&#45;&gt;api/words/utils.ts</title>
<path fill="none" stroke="#757575" d="M358.12,-280.8C393.44,-281.52 437.24,-282.41 473.06,-283.13"/>
<polygon fill="#757575" stroke="#757575" points="473.36,-286.64 483.43,-283.34 473.5,-279.64 473.36,-286.64"/>
</g>
<!-- api/words/routes.ts&#45;&gt;api/words/model.ts -->
<g id="edge37" class="edge">
<title>api/words/routes.ts&#45;&gt;api/words/model.ts</title>
<path fill="none" stroke="#757575" d="M358.23,-270.55C381.7,-267.69 408.51,-264.91 433,-263.5 529.29,-257.98 553.76,-257.29 650,-263.5 671.08,-264.86 693.84,-267.37 714.72,-270.09"/>
<polygon fill="#757575" stroke="#757575" points="714.43,-273.58 724.81,-271.43 715.36,-266.64 714.43,-273.58"/>
</g>
<!-- app.ts -->
<g id="node36" class="node">
<title>app.ts</title>
<path fill="none" stroke="#c6c5fe" d="M145.33,-352C145.33,-352 106.67,-352 106.67,-352 102.83,-352 99,-348.17 99,-344.33 99,-344.33 99,-336.67 99,-336.67 99,-332.83 102.83,-329 106.67,-329 106.67,-329 145.33,-329 145.33,-329 149.17,-329 153,-332.83 153,-336.67 153,-336.67 153,-344.33 153,-344.33 153,-348.17 149.17,-352 145.33,-352"/>
<text text-anchor="middle" x="126" y="-336.8" font-family="Arial" font-size="14.00" fill="#c6c5fe">app.ts</text>
</g>
<!-- app.ts&#45;&gt;api/admin/routes.ts -->
<g id="edge39" class="edge">
<title>app.ts&#45;&gt;api/admin/routes.ts</title>
<path fill="none" stroke="#757575" d="M153.14,-337.33C170.48,-335.23 194.17,-332.36 217.08,-329.58"/>
<polygon fill="#757575" stroke="#757575" points="217.67,-333.04 227.18,-328.36 216.83,-326.09 217.67,-333.04"/>
</g>
<!-- app.ts&#45;&gt;api/auth/routes.ts -->
<g id="edge40" class="edge">
<title>app.ts&#45;&gt;api/auth/routes.ts</title>
<path fill="none" stroke="#757575" d="M126.66,-352.21C126.31,-387.47 130.41,-493.52 189,-546.5 198.44,-555.03 210.39,-560.4 222.78,-563.69"/>
<polygon fill="#757575" stroke="#757575" points="222.25,-567.16 232.78,-565.9 223.77,-560.32 222.25,-567.16"/>
</g>
<!-- app.ts&#45;&gt;api/clever/routes.ts -->
<g id="edge41" class="edge">
<title>app.ts&#45;&gt;api/clever/routes.ts</title>
<path fill="none" stroke="#757575" d="M141.37,-352.33C153.39,-361.63 171.36,-374.19 189,-381.5 198.17,-385.3 208.09,-388.43 218.03,-391.01"/>
<polygon fill="#757575" stroke="#757575" points="217.4,-394.46 227.95,-393.4 219.05,-387.65 217.4,-394.46"/>
</g>
<!-- app.ts&#45;&gt;api/definitionReactions/routes.ts -->
<g id="edge42" class="edge">
<title>app.ts&#45;&gt;api/definitionReactions/routes.ts</title>
<path fill="none" stroke="#757575" d="M132.99,-328.73C142.54,-311.07 162.83,-277.75 189,-258.5 201.87,-249.03 217.4,-241.8 232.45,-236.34"/>
<polygon fill="#757575" stroke="#757575" points="233.9,-239.54 242.24,-233.01 231.64,-232.92 233.9,-239.54"/>
</g>
<!-- app.ts&#45;&gt;api/definitions/routes.ts -->
<g id="edge43" class="edge">
<title>app.ts&#45;&gt;api/definitions/routes.ts</title>
<path fill="none" stroke="#757575" d="M126.37,-328.97C125.03,-292.14 126.2,-176.43 189,-118.5 194.04,-113.85 199.82,-110.14 206.02,-107.19"/>
<polygon fill="#757575" stroke="#757575" points="207.42,-110.4 215.36,-103.38 204.78,-103.91 207.42,-110.4"/>
</g>
<!-- app.ts&#45;&gt;api/game/routes.ts -->
<g id="edge44" class="edge">
<title>app.ts&#45;&gt;api/game/routes.ts</title>
<path fill="none" stroke="#757575" d="M128.51,-328.91C132.68,-301.78 147.01,-233.96 189,-200.5 197.67,-193.59 208.04,-188.84 218.81,-185.6"/>
<polygon fill="#757575" stroke="#757575" points="219.97,-188.92 228.78,-183.04 218.22,-182.14 219.97,-188.92"/>
</g>
<!-- app.ts&#45;&gt;api/played/routes.ts -->
<g id="edge45" class="edge">
<title>app.ts&#45;&gt;api/played/routes.ts</title>
<path fill="none" stroke="#757575" d="M132.16,-352.03C140.99,-370.34 160.82,-405.81 189,-423.5 197.19,-428.64 206.41,-432.51 215.88,-435.41"/>
<polygon fill="#757575" stroke="#757575" points="215.24,-438.86 225.81,-438.1 217.07,-432.11 215.24,-438.86"/>
</g>
<!-- app.ts&#45;&gt;api/player/routes.ts -->
<g id="edge46" class="edge">
<title>app.ts&#45;&gt;api/player/routes.ts</title>
<path fill="none" stroke="#757575" d="M128.36,-352.01C133.78,-395.99 155.18,-552.7 189,-587.5 261.52,-662.12 385.54,-681.75 465.21,-686.23"/>
<polygon fill="#757575" stroke="#757575" points="465.5,-689.75 475.66,-686.75 465.84,-682.76 465.5,-689.75"/>
</g>
<!-- app.ts&#45;&gt;api/reactions/routes.ts -->
<g id="edge47" class="edge">
<title>app.ts&#45;&gt;api/reactions/routes.ts</title>
<path fill="none" stroke="#757575" d="M153.14,-343.83C168.23,-345.75 188.12,-348.28 208.12,-350.82"/>
<polygon fill="#757575" stroke="#757575" points="207.88,-354.32 218.25,-352.11 208.77,-347.38 207.88,-354.32"/>
</g>
<!-- app.ts&#45;&gt;api/rounds/routes.ts -->
<g id="edge48" class="edge">
<title>app.ts&#45;&gt;api/rounds/routes.ts</title>
<path fill="none" stroke="#757575" d="M127.66,-352.27C130.04,-382.77 140.85,-464.81 189,-505.5 196.72,-512.03 205.94,-516.66 215.63,-519.92"/>
<polygon fill="#757575" stroke="#757575" points="214.88,-523.34 225.46,-522.74 216.81,-516.62 214.88,-523.34"/>
</g>
<!-- app.ts&#45;&gt;api/userRounds/routes.ts -->
<g id="edge49" class="edge">
<title>app.ts&#45;&gt;api/userRounds/routes.ts</title>
<path fill="none" stroke="#757575" d="M129.26,-352.27C134.71,-377.26 151.05,-435.68 189,-464.5 192.47,-467.13 196.19,-469.45 200.08,-471.48"/>
<polygon fill="#757575" stroke="#757575" points="198.89,-474.79 209.44,-475.74 201.78,-468.42 198.89,-474.79"/>
</g>
<!-- app.ts&#45;&gt;api/votes/routes.ts -->
<g id="edge50" class="edge">
<title>app.ts&#45;&gt;api/votes/routes.ts</title>
<path fill="none" stroke="#757575" d="M127.23,-328.58C128.53,-296 136.89,-204.86 189,-159.5 197.77,-151.87 208.56,-146.8 219.83,-143.49"/>
<polygon fill="#757575" stroke="#757575" points="220.95,-146.82 229.82,-141.01 219.27,-140.02 220.95,-146.82"/>
</g>
<!-- app.ts&#45;&gt;api/words/routes.ts -->
<g id="edge51" class="edge">
<title>app.ts&#45;&gt;api/words/routes.ts</title>
<path fill="none" stroke="#757575" d="M141.35,-328.62C153.36,-319.3 171.32,-306.73 189,-299.5 198.17,-295.75 208.09,-292.69 218.03,-290.2"/>
<polygon fill="#757575" stroke="#757575" points="219,-293.57 227.95,-287.89 217.41,-286.75 219,-293.57"/>
</g>
<!-- logger.ts -->
<g id="node37" class="node">
<title>logger.ts</title>
<path fill="none" stroke="#cfffac" d="M319.33,-69C319.33,-69 266.67,-69 266.67,-69 262.83,-69 259,-65.17 259,-61.33 259,-61.33 259,-53.67 259,-53.67 259,-49.83 262.83,-46 266.67,-46 266.67,-46 319.33,-46 319.33,-46 323.17,-46 327,-49.83 327,-53.67 327,-53.67 327,-61.33 327,-61.33 327,-65.17 323.17,-69 319.33,-69"/>
<text text-anchor="middle" x="293" y="-53.8" font-family="Arial" font-size="14.00" fill="#cfffac">logger.ts</text>
</g>
<!-- app.ts&#45;&gt;logger.ts -->
<g id="edge52" class="edge">
<title>app.ts&#45;&gt;logger.ts</title>
<path fill="none" stroke="#757575" d="M128.09,-328.8C132.66,-282.56 151.71,-113.34 189,-77.5 204.62,-62.49 227.95,-57.11 248.46,-55.65"/>
<polygon fill="#757575" stroke="#757575" points="248.72,-59.14 258.56,-55.22 248.42,-52.15 248.72,-59.14"/>
</g>
<!-- index.ts -->
<g id="node38" class="node">
<title>index.ts</title>
<path fill="none" stroke="#c6c5fe" d="M55.33,-352C55.33,-352 7.67,-352 7.67,-352 3.83,-352 0,-348.17 0,-344.33 0,-344.33 0,-336.67 0,-336.67 0,-332.83 3.83,-329 7.67,-329 7.67,-329 55.33,-329 55.33,-329 59.17,-329 63,-332.83 63,-336.67 63,-336.67 63,-344.33 63,-344.33 63,-348.17 59.17,-352 55.33,-352"/>
<text text-anchor="middle" x="31.5" y="-336.8" font-family="Arial" font-size="14.00" fill="#c6c5fe">index.ts</text>
</g>
<!-- index.ts&#45;&gt;app.ts -->
<g id="edge54" class="edge">
<title>index.ts&#45;&gt;app.ts</title>
<path fill="none" stroke="#757575" d="M63.04,-340.5C71.27,-340.5 80.26,-340.5 88.77,-340.5"/>
<polygon fill="#757575" stroke="#757575" points="88.83,-344 98.83,-340.5 88.83,-337 88.83,-344"/>
</g>
</g>
</svg>
