<?xml version="1.0" encoding="UTF-8" standalone="no"?>
<!DOCTYPE svg PUBLIC "-//W3C//DTD SVG 1.1//EN"
 "http://www.w3.org/Graphics/SVG/1.1/DTD/svg11.dtd">
<!-- Generated by graphviz version 2.43.0 (0)
 -->
<!-- Title: G Pages: 1 -->
<svg width="1385pt" height="694pt"
 viewBox="0.00 0.00 1385.20 694.20" xmlns="http://www.w3.org/2000/svg" xmlns:xlink="http://www.w3.org/1999/xlink">
<g id="graph0" class="graph" transform="scale(1 1) rotate(0) translate(21.6 672.6)">
<title>G</title>
<polygon fill="#111111" stroke="transparent" points="-21.6,21.6 -21.6,-672.6 1363.6,-672.6 1363.6,21.6 -21.6,21.6"/>
<!-- ../knexfile.ts -->
<g id="node1" class="node">
<title>../knexfile.ts</title>
<path fill="none" stroke="#cfffac" d="M1334.33,-345C1334.33,-345 1261.67,-345 1261.67,-345 1257.83,-345 1254,-341.17 1254,-337.33 1254,-337.33 1254,-329.67 1254,-329.67 1254,-325.83 1257.83,-322 1261.67,-322 1261.67,-322 1334.33,-322 1334.33,-322 1338.17,-322 1342,-325.83 1342,-329.67 1342,-329.67 1342,-337.33 1342,-337.33 1342,-341.17 1338.17,-345 1334.33,-345"/>
<text text-anchor="middle" x="1298" y="-329.8" font-family="Arial" font-size="14.00" fill="#cfffac">../knexfile.ts</text>
</g>
<!-- api/admin/model.ts -->
<g id="node2" class="node">
<title>api/admin/model.ts</title>
<path fill="none" stroke="#c6c5fe" d="M1050.83,-263C1050.83,-263 935.17,-263 935.17,-263 931.33,-263 927.5,-259.17 927.5,-255.33 927.5,-255.33 927.5,-247.67 927.5,-247.67 927.5,-243.83 931.33,-240 935.17,-240 935.17,-240 1050.83,-240 1050.83,-240 1054.67,-240 1058.5,-243.83 1058.5,-247.67 1058.5,-247.67 1058.5,-255.33 1058.5,-255.33 1058.5,-259.17 1054.67,-263 1050.83,-263"/>
<text text-anchor="middle" x="993" y="-247.8" font-family="Arial" font-size="14.00" fill="#c6c5fe">api/admin/model.ts</text>
</g>
<!-- dbConfig.ts -->
<g id="node3" class="node">
<title>dbConfig.ts</title>
<path fill="none" stroke="#c6c5fe" d="M1210.33,-345C1210.33,-345 1140.67,-345 1140.67,-345 1136.83,-345 1133,-341.17 1133,-337.33 1133,-337.33 1133,-329.67 1133,-329.67 1133,-325.83 1136.83,-322 1140.67,-322 1140.67,-322 1210.33,-322 1210.33,-322 1214.17,-322 1218,-325.83 1218,-329.67 1218,-329.67 1218,-337.33 1218,-337.33 1218,-341.17 1214.17,-345 1210.33,-345"/>
<text text-anchor="middle" x="1175.5" y="-329.8" font-family="Arial" font-size="14.00" fill="#c6c5fe">dbConfig.ts</text>
</g>
<!-- api/admin/model.ts&#45;&gt;dbConfig.ts -->
<g id="edge1" class="edge">
<title>api/admin/model.ts&#45;&gt;dbConfig.ts</title>
<path fill="none" stroke="#757575" d="M1058.69,-259.11C1071.74,-262 1085.1,-265.99 1097,-271.5 1119.7,-282 1141.57,-300.52 1156.25,-314.59"/>
<polygon fill="#757575" stroke="#757575" points="1154.06,-317.34 1163.63,-321.87 1158.97,-312.36 1154.06,-317.34"/>
</g>
<!-- dbConfig.ts&#45;&gt;../knexfile.ts -->
<g id="edge53" class="edge">
<title>dbConfig.ts&#45;&gt;../knexfile.ts</title>
<path fill="none" stroke="#757575" d="M1218.31,-333.5C1226.43,-333.5 1235.04,-333.5 1243.47,-333.5"/>
<polygon fill="#757575" stroke="#757575" points="1243.63,-337 1253.63,-333.5 1243.63,-330 1243.63,-337"/>
</g>
<!-- api/admin/routes.ts -->
<g id="node4" class="node">
<title>api/admin/routes.ts</title>
<path fill="none" stroke="#c6c5fe" d="M350.83,-262C350.83,-262 235.17,-262 235.17,-262 231.33,-262 227.5,-258.17 227.5,-254.33 227.5,-254.33 227.5,-246.67 227.5,-246.67 227.5,-242.83 231.33,-239 235.17,-239 235.17,-239 350.83,-239 350.83,-239 354.67,-239 358.5,-242.83 358.5,-246.67 358.5,-246.67 358.5,-254.33 358.5,-254.33 358.5,-258.17 354.67,-262 350.83,-262"/>
<text text-anchor="middle" x="293" y="-246.8" font-family="Arial" font-size="14.00" fill="#c6c5fe">api/admin/routes.ts</text>
</g>
<!-- api/admin/routes.ts&#45;&gt;api/admin/model.ts -->
<g id="edge2" class="edge">
<title>api/admin/routes.ts&#45;&gt;api/admin/model.ts</title>
<path fill="none" stroke="#757575" d="M358.54,-240.39C381.93,-237.19 408.6,-234.07 433,-232.5 529.24,-226.29 553.59,-229.82 650,-232.5 742.02,-235.05 847.81,-241.47 917.06,-246.14"/>
<polygon fill="#757575" stroke="#757575" points="917.22,-249.66 927.43,-246.84 917.69,-242.67 917.22,-249.66"/>
</g>
<!-- api/words/utils.ts -->
<g id="node5" class="node">
<title>api/words/utils.ts</title>
<path fill="none" stroke="#cfffac" d="M591.83,-265C591.83,-265 491.17,-265 491.17,-265 487.33,-265 483.5,-261.17 483.5,-257.33 483.5,-257.33 483.5,-249.67 483.5,-249.67 483.5,-245.83 487.33,-242 491.17,-242 491.17,-242 591.83,-242 591.83,-242 595.67,-242 599.5,-245.83 599.5,-249.67 599.5,-249.67 599.5,-257.33 599.5,-257.33 599.5,-261.17 595.67,-265 591.83,-265"/>
<text text-anchor="middle" x="541.5" y="-249.8" font-family="Arial" font-size="14.00" fill="#cfffac">api/words/utils.ts</text>
</g>
<!-- api/admin/routes.ts&#45;&gt;api/words/utils.ts -->
<g id="edge3" class="edge">
<title>api/admin/routes.ts&#45;&gt;api/words/utils.ts</title>
<path fill="none" stroke="#757575" d="M358.76,-251.29C393.95,-251.72 437.41,-252.25 473.01,-252.68"/>
<polygon fill="#757575" stroke="#757575" points="473.26,-256.18 483.3,-252.8 473.35,-249.18 473.26,-256.18"/>
</g>
<!-- api/auth/routes.ts -->
<g id="node6" class="node">
<title>api/auth/routes.ts</title>
<path fill="none" stroke="#c6c5fe" d="M345.33,-482C345.33,-482 240.67,-482 240.67,-482 236.83,-482 233,-478.17 233,-474.33 233,-474.33 233,-466.67 233,-466.67 233,-462.83 236.83,-459 240.67,-459 240.67,-459 345.33,-459 345.33,-459 349.17,-459 353,-462.83 353,-466.67 353,-466.67 353,-474.33 353,-474.33 353,-478.17 349.17,-482 345.33,-482"/>
<text text-anchor="middle" x="293" y="-466.8" font-family="Arial" font-size="14.00" fill="#c6c5fe">api/auth/routes.ts</text>
</g>
<!-- api/auth/secrets.ts -->
<g id="node7" class="node">
<title>api/auth/secrets.ts</title>
<path fill="none" stroke="#cfffac" d="M824.83,-491C824.83,-491 714.17,-491 714.17,-491 710.33,-491 706.5,-487.17 706.5,-483.33 706.5,-483.33 706.5,-475.67 706.5,-475.67 706.5,-471.83 710.33,-468 714.17,-468 714.17,-468 824.83,-468 824.83,-468 828.67,-468 832.5,-471.83 832.5,-475.67 832.5,-475.67 832.5,-483.33 832.5,-483.33 832.5,-487.17 828.67,-491 824.83,-491"/>
<text text-anchor="middle" x="769.5" y="-475.8" font-family="Arial" font-size="14.00" fill="#cfffac">api/auth/secrets.ts</text>
</g>
<!-- api/auth/routes.ts&#45;&gt;api/auth/secrets.ts -->
<g id="edge4" class="edge">
<title>api/auth/routes.ts&#45;&gt;api/auth/secrets.ts</title>
<path fill="none" stroke="#757575" d="M353.14,-471.62C440.06,-473.27 602.15,-476.34 696.09,-478.13"/>
<polygon fill="#757575" stroke="#757575" points="696.29,-481.63 706.36,-478.32 696.42,-474.63 696.29,-481.63"/>
</g>
<!-- api/auth/utils.ts -->
<g id="node8" class="node">
<title>api/auth/utils.ts</title>
<path fill="none" stroke="#c6c5fe" d="M587.33,-462C587.33,-462 495.67,-462 495.67,-462 491.83,-462 488,-458.17 488,-454.33 488,-454.33 488,-446.67 488,-446.67 488,-442.83 491.83,-439 495.67,-439 495.67,-439 587.33,-439 587.33,-439 591.17,-439 595,-442.83 595,-446.67 595,-446.67 595,-454.33 595,-454.33 595,-458.17 591.17,-462 587.33,-462"/>
<text text-anchor="middle" x="541.5" y="-446.8" font-family="Arial" font-size="14.00" fill="#c6c5fe">api/auth/utils.ts</text>
</g>
<!-- api/auth/routes.ts&#45;&gt;api/auth/utils.ts -->
<g id="edge5" class="edge">
<title>api/auth/routes.ts&#45;&gt;api/auth/utils.ts</title>
<path fill="none" stroke="#757575" d="M353.04,-465.71C390.7,-462.65 439.45,-458.7 477.79,-455.59"/>
<polygon fill="#757575" stroke="#757575" points="478.12,-459.07 487.81,-454.78 477.56,-452.1 478.12,-459.07"/>
</g>
<!-- api/player/model.ts -->
<g id="node9" class="node">
<title>api/player/model.ts</title>
<path fill="none" stroke="#c6c5fe" d="M827.33,-540C827.33,-540 711.67,-540 711.67,-540 707.83,-540 704,-536.17 704,-532.33 704,-532.33 704,-524.67 704,-524.67 704,-520.83 707.83,-517 711.67,-517 711.67,-517 827.33,-517 827.33,-517 831.17,-517 835,-520.83 835,-524.67 835,-524.67 835,-532.33 835,-532.33 835,-536.17 831.17,-540 827.33,-540"/>
<text text-anchor="middle" x="769.5" y="-524.8" font-family="Arial" font-size="14.00" fill="#c6c5fe">api/player/model.ts</text>
</g>
<!-- api/auth/routes.ts&#45;&gt;api/player/model.ts -->
<g id="edge6" class="edge">
<title>api/auth/routes.ts&#45;&gt;api/player/model.ts</title>
<path fill="none" stroke="#757575" d="M353.17,-478.3C377.84,-481.51 406.8,-485.24 433,-488.5 522.56,-499.64 625.65,-511.84 693.66,-519.8"/>
<polygon fill="#757575" stroke="#757575" points="693.51,-523.3 703.85,-520.99 694.32,-516.35 693.51,-523.3"/>
</g>
<!-- api/auth/utils.ts&#45;&gt;api/auth/secrets.ts -->
<g id="edge7" class="edge">
<title>api/auth/utils.ts&#45;&gt;api/auth/secrets.ts</title>
<path fill="none" stroke="#757575" d="M595.2,-457.26C625.34,-461.13 663.58,-466.04 696.46,-470.26"/>
<polygon fill="#757575" stroke="#757575" points="696.12,-473.74 706.48,-471.54 697.01,-466.8 696.12,-473.74"/>
</g>
<!-- api/auth/utils.ts&#45;&gt;api/player/model.ts -->
<g id="edge8" class="edge">
<title>api/auth/utils.ts&#45;&gt;api/player/model.ts</title>
<path fill="none" stroke="#757575" d="M575.53,-462.09C604.6,-472.28 648.08,-487.46 686,-500.5 698.53,-504.81 712.14,-509.45 724.63,-513.68"/>
<polygon fill="#757575" stroke="#757575" points="723.77,-517.09 734.36,-516.98 726.01,-510.46 723.77,-517.09"/>
</g>
<!-- api/rounds/model.ts -->
<g id="node10" class="node">
<title>api/rounds/model.ts</title>
<path fill="none" stroke="#c6c5fe" d="M829.33,-435C829.33,-435 709.67,-435 709.67,-435 705.83,-435 702,-431.17 702,-427.33 702,-427.33 702,-419.67 702,-419.67 702,-415.83 705.83,-412 709.67,-412 709.67,-412 829.33,-412 829.33,-412 833.17,-412 837,-415.83 837,-419.67 837,-419.67 837,-427.33 837,-427.33 837,-431.17 833.17,-435 829.33,-435"/>
<text text-anchor="middle" x="769.5" y="-419.8" font-family="Arial" font-size="14.00" fill="#c6c5fe">api/rounds/model.ts</text>
</g>
<!-- api/auth/utils.ts&#45;&gt;api/rounds/model.ts -->
<g id="edge9" class="edge">
<title>api/auth/utils.ts&#45;&gt;api/rounds/model.ts</title>
<path fill="none" stroke="#757575" d="M595.2,-444.2C623.92,-440.77 659.98,-436.46 691.77,-432.67"/>
<polygon fill="#757575" stroke="#757575" points="692.41,-436.12 701.92,-431.45 691.58,-429.17 692.41,-436.12"/>
</g>
<!-- api/userRounds/model.ts -->
<g id="node11" class="node">
<title>api/userRounds/model.ts</title>
<path fill="none" stroke="#c6c5fe" d="M845.33,-386C845.33,-386 693.67,-386 693.67,-386 689.83,-386 686,-382.17 686,-378.33 686,-378.33 686,-370.67 686,-370.67 686,-366.83 689.83,-363 693.67,-363 693.67,-363 845.33,-363 845.33,-363 849.17,-363 853,-366.83 853,-370.67 853,-370.67 853,-378.33 853,-378.33 853,-382.17 849.17,-386 845.33,-386"/>
<text text-anchor="middle" x="769.5" y="-370.8" font-family="Arial" font-size="14.00" fill="#c6c5fe">api/userRounds/model.ts</text>
</g>
<!-- api/auth/utils.ts&#45;&gt;api/userRounds/model.ts -->
<g id="edge10" class="edge">
<title>api/auth/utils.ts&#45;&gt;api/userRounds/model.ts</title>
<path fill="none" stroke="#757575" d="M595.06,-445.64C613.02,-442.71 632.88,-438.02 650,-430.5 668.31,-422.46 668.36,-412.93 686,-403.5 695.94,-398.19 707.06,-393.51 717.84,-389.56"/>
<polygon fill="#757575" stroke="#757575" points="719.32,-392.75 727.59,-386.13 716.99,-386.15 719.32,-392.75"/>
</g>
<!-- api/player/model.ts&#45;&gt;dbConfig.ts -->
<g id="edge23" class="edge">
<title>api/player/model.ts&#45;&gt;dbConfig.ts</title>
<path fill="none" stroke="#757575" d="M813.62,-540.01C880.73,-555.21 1011.34,-573.68 1097,-514.5 1150.61,-477.46 1167.35,-395.22 1172.41,-355.63"/>
<polygon fill="#757575" stroke="#757575" points="1175.91,-355.79 1173.57,-345.46 1168.96,-355 1175.91,-355.79"/>
</g>
<!-- api/player/utils.ts -->
<g id="node24" class="node">
<title>api/player/utils.ts</title>
<path fill="none" stroke="#cfffac" d="M1043.83,-505C1043.83,-505 942.17,-505 942.17,-505 938.33,-505 934.5,-501.17 934.5,-497.33 934.5,-497.33 934.5,-489.67 934.5,-489.67 934.5,-485.83 938.33,-482 942.17,-482 942.17,-482 1043.83,-482 1043.83,-482 1047.67,-482 1051.5,-485.83 1051.5,-489.67 1051.5,-489.67 1051.5,-497.33 1051.5,-497.33 1051.5,-501.17 1047.67,-505 1043.83,-505"/>
<text text-anchor="middle" x="993" y="-489.8" font-family="Arial" font-size="14.00" fill="#cfffac">api/player/utils.ts</text>
</g>
<!-- api/player/model.ts&#45;&gt;api/player/utils.ts -->
<g id="edge22" class="edge">
<title>api/player/model.ts&#45;&gt;api/player/utils.ts</title>
<path fill="none" stroke="#757575" d="M835.16,-518.28C863.14,-513.86 895.89,-508.69 924.21,-504.21"/>
<polygon fill="#757575" stroke="#757575" points="925.09,-507.62 934.42,-502.6 924,-500.7 925.09,-507.62"/>
</g>
<!-- api/rounds/model.ts&#45;&gt;dbConfig.ts -->
<g id="edge28" class="edge">
<title>api/rounds/model.ts&#45;&gt;dbConfig.ts</title>
<path fill="none" stroke="#757575" d="M806.13,-435.11C868.72,-453.32 1000.86,-481.91 1097,-434.5 1130.8,-417.83 1153.96,-378.56 1165.65,-354.19"/>
<polygon fill="#757575" stroke="#757575" points="1168.85,-355.62 1169.83,-345.07 1162.49,-352.7 1168.85,-355.62"/>
</g>
<!-- api/rounds/utils.ts -->
<g id="node28" class="node">
<title>api/rounds/utils.ts</title>
<path fill="none" stroke="#cfffac" d="M1046.33,-425C1046.33,-425 939.67,-425 939.67,-425 935.83,-425 932,-421.17 932,-417.33 932,-417.33 932,-409.67 932,-409.67 932,-405.83 935.83,-402 939.67,-402 939.67,-402 1046.33,-402 1046.33,-402 1050.17,-402 1054,-405.83 1054,-409.67 1054,-409.67 1054,-417.33 1054,-417.33 1054,-421.17 1050.17,-425 1046.33,-425"/>
<text text-anchor="middle" x="993" y="-409.8" font-family="Arial" font-size="14.00" fill="#cfffac">api/rounds/utils.ts</text>
</g>
<!-- api/rounds/model.ts&#45;&gt;api/rounds/utils.ts -->
<g id="edge27" class="edge">
<title>api/rounds/model.ts&#45;&gt;api/rounds/utils.ts</title>
<path fill="none" stroke="#757575" d="M837.26,-420.49C863.91,-419.28 894.63,-417.9 921.64,-416.68"/>
<polygon fill="#757575" stroke="#757575" points="921.96,-420.17 931.79,-416.22 921.64,-413.17 921.96,-420.17"/>
</g>
<!-- api/userRounds/model.ts&#45;&gt;dbConfig.ts -->
<g id="edge31" class="edge">
<title>api/userRounds/model.ts&#45;&gt;dbConfig.ts</title>
<path fill="none" stroke="#757575" d="M853.2,-374.07C919.52,-372.61 1014.76,-368.02 1097,-354.5 1107.11,-352.84 1117.8,-350.4 1127.91,-347.77"/>
<polygon fill="#757575" stroke="#757575" points="1129.05,-351.09 1137.78,-345.09 1127.21,-344.33 1129.05,-351.09"/>
</g>
<!-- api/played/model.ts -->
<g id="node22" class="node">
<title>api/played/model.ts</title>
<path fill="none" stroke="#c6c5fe" d="M1052.33,-345C1052.33,-345 933.67,-345 933.67,-345 929.83,-345 926,-341.17 926,-337.33 926,-337.33 926,-329.67 926,-329.67 926,-325.83 929.83,-322 933.67,-322 933.67,-322 1052.33,-322 1052.33,-322 1056.17,-322 1060,-325.83 1060,-329.67 1060,-329.67 1060,-337.33 1060,-337.33 1060,-341.17 1056.17,-345 1052.33,-345"/>
<text text-anchor="middle" x="993" y="-329.8" font-family="Arial" font-size="14.00" fill="#c6c5fe">api/played/model.ts</text>
</g>
<!-- api/userRounds/model.ts&#45;&gt;api/played/model.ts -->
<g id="edge30" class="edge">
<title>api/userRounds/model.ts&#45;&gt;api/played/model.ts</title>
<path fill="none" stroke="#757575" d="M832.79,-362.97C859.8,-357.97 891.6,-352.08 919.65,-346.89"/>
<polygon fill="#757575" stroke="#757575" points="920.6,-350.28 929.79,-345.01 919.32,-343.39 920.6,-350.28"/>
</g>
<!-- api/clever/routes.ts -->
<g id="node12" class="node">
<title>api/clever/routes.ts</title>
<path fill="none" stroke="#c6c5fe" d="M350.33,-72C350.33,-72 235.67,-72 235.67,-72 231.83,-72 228,-68.17 228,-64.33 228,-64.33 228,-56.67 228,-56.67 228,-52.83 231.83,-49 235.67,-49 235.67,-49 350.33,-49 350.33,-49 354.17,-49 358,-52.83 358,-56.67 358,-56.67 358,-64.33 358,-64.33 358,-68.17 354.17,-72 350.33,-72"/>
<text text-anchor="middle" x="293" y="-56.8" font-family="Arial" font-size="14.00" fill="#c6c5fe">api/clever/routes.ts</text>
</g>
<!-- api/middleware/cleverRequired.ts -->
<g id="node13" class="node">
<title>api/middleware/cleverRequired.ts</title>
<path fill="none" stroke="#cfffac" d="M642.33,-23C642.33,-23 440.67,-23 440.67,-23 436.83,-23 433,-19.17 433,-15.33 433,-15.33 433,-7.67 433,-7.67 433,-3.83 436.83,0 440.67,0 440.67,0 642.33,0 642.33,0 646.17,0 650,-3.83 650,-7.67 650,-7.67 650,-15.33 650,-15.33 650,-19.17 646.17,-23 642.33,-23"/>
<text text-anchor="middle" x="541.5" y="-7.8" font-family="Arial" font-size="14.00" fill="#cfffac">api/middleware/cleverRequired.ts</text>
</g>
<!-- api/clever/routes.ts&#45;&gt;api/middleware/cleverRequired.ts -->
<g id="edge11" class="edge">
<title>api/clever/routes.ts&#45;&gt;api/middleware/cleverRequired.ts</title>
<path fill="none" stroke="#757575" d="M351.51,-48.96C366.34,-45.93 382.27,-42.64 397,-39.5 413.03,-36.08 416.94,-34.78 433,-31.5 443.86,-29.28 455.36,-27.04 466.64,-24.89"/>
<polygon fill="#757575" stroke="#757575" points="467.3,-28.33 476.48,-23.03 466,-21.45 467.3,-28.33"/>
</g>
<!-- api/definitionReactions/model.ts -->
<g id="node14" class="node">
<title>api/definitionReactions/model.ts</title>
<path fill="none" stroke="#c6c5fe" d="M1089.33,-143C1089.33,-143 896.67,-143 896.67,-143 892.83,-143 889,-139.17 889,-135.33 889,-135.33 889,-127.67 889,-127.67 889,-123.83 892.83,-120 896.67,-120 896.67,-120 1089.33,-120 1089.33,-120 1093.17,-120 1097,-123.83 1097,-127.67 1097,-127.67 1097,-135.33 1097,-135.33 1097,-139.17 1093.17,-143 1089.33,-143"/>
<text text-anchor="middle" x="993" y="-127.8" font-family="Arial" font-size="14.00" fill="#c6c5fe">api/definitionReactions/model.ts</text>
</g>
<!-- api/definitionReactions/model.ts&#45;&gt;dbConfig.ts -->
<g id="edge12" class="edge">
<title>api/definitionReactions/model.ts&#45;&gt;dbConfig.ts</title>
<path fill="none" stroke="#757575" d="M1072.28,-143.03C1081.24,-146.65 1089.75,-151.37 1097,-157.5 1145.07,-198.12 1164.37,-274.35 1171.2,-311.72"/>
<polygon fill="#757575" stroke="#757575" points="1167.82,-312.71 1172.94,-321.99 1174.72,-311.54 1167.82,-312.71"/>
</g>
<!-- api/definitionReactions/routes.ts -->
<g id="node15" class="node">
<title>api/definitionReactions/routes.ts</title>
<path fill="none" stroke="#c6c5fe" d="M389.33,-154C389.33,-154 196.67,-154 196.67,-154 192.83,-154 189,-150.17 189,-146.33 189,-146.33 189,-138.67 189,-138.67 189,-134.83 192.83,-131 196.67,-131 196.67,-131 389.33,-131 389.33,-131 393.17,-131 397,-134.83 397,-138.67 397,-138.67 397,-146.33 397,-146.33 397,-150.17 393.17,-154 389.33,-154"/>
<text text-anchor="middle" x="293" y="-138.8" font-family="Arial" font-size="14.00" fill="#c6c5fe">api/definitionReactions/routes.ts</text>
</g>
<!-- api/definitionReactions/routes.ts&#45;&gt;api/definitionReactions/model.ts -->
<g id="edge13" class="edge">
<title>api/definitionReactions/routes.ts&#45;&gt;api/definitionReactions/model.ts</title>
<path fill="none" stroke="#757575" d="M397.37,-140.87C526.17,-138.84 745.51,-135.38 878.75,-133.28"/>
<polygon fill="#757575" stroke="#757575" points="879.05,-136.78 888.99,-133.12 878.94,-129.78 879.05,-136.78"/>
</g>
<!-- api/definitionReactions/utils.ts -->
<g id="node16" class="node">
<title>api/definitionReactions/utils.ts</title>
<path fill="none" stroke="#cfffac" d="M630.83,-105C630.83,-105 452.17,-105 452.17,-105 448.33,-105 444.5,-101.17 444.5,-97.33 444.5,-97.33 444.5,-89.67 444.5,-89.67 444.5,-85.83 448.33,-82 452.17,-82 452.17,-82 630.83,-82 630.83,-82 634.67,-82 638.5,-85.83 638.5,-89.67 638.5,-89.67 638.5,-97.33 638.5,-97.33 638.5,-101.17 634.67,-105 630.83,-105"/>
<text text-anchor="middle" x="541.5" y="-89.8" font-family="Arial" font-size="14.00" fill="#cfffac">api/definitionReactions/utils.ts</text>
</g>
<!-- api/definitionReactions/routes.ts&#45;&gt;api/definitionReactions/utils.ts -->
<g id="edge14" class="edge">
<title>api/definitionReactions/routes.ts&#45;&gt;api/definitionReactions/utils.ts</title>
<path fill="none" stroke="#757575" d="M352.1,-130.95C388.17,-123.78 434.67,-114.54 472.45,-107.03"/>
<polygon fill="#757575" stroke="#757575" points="473.23,-110.44 482.36,-105.06 471.87,-103.57 473.23,-110.44"/>
</g>
<!-- api/definitions/model.ts -->
<g id="node17" class="node">
<title>api/definitions/model.ts</title>
<path fill="none" stroke="#c6c5fe" d="M611.33,-64C611.33,-64 471.67,-64 471.67,-64 467.83,-64 464,-60.17 464,-56.33 464,-56.33 464,-48.67 464,-48.67 464,-44.83 467.83,-41 471.67,-41 471.67,-41 611.33,-41 611.33,-41 615.17,-41 619,-44.83 619,-48.67 619,-48.67 619,-56.33 619,-56.33 619,-60.17 615.17,-64 611.33,-64"/>
<text text-anchor="middle" x="541.5" y="-48.8" font-family="Arial" font-size="14.00" fill="#c6c5fe">api/definitions/model.ts</text>
</g>
<!-- api/definitions/model.ts&#45;&gt;dbConfig.ts -->
<g id="edge16" class="edge">
<title>api/definitions/model.ts&#45;&gt;dbConfig.ts</title>
<path fill="none" stroke="#757575" d="M619.21,-50.31C754.14,-48.09 1026.38,-51.33 1097,-110.5 1158.83,-162.31 1171.4,-266.27 1173.9,-311.56"/>
<polygon fill="#757575" stroke="#757575" points="1170.42,-311.91 1174.35,-321.75 1177.41,-311.61 1170.42,-311.91"/>
</g>
<!-- api/definitions/utils.ts -->
<g id="node18" class="node">
<title>api/definitions/utils.ts</title>
<path fill="none" stroke="#cfffac" d="M832.33,-104C832.33,-104 706.67,-104 706.67,-104 702.83,-104 699,-100.17 699,-96.33 699,-96.33 699,-88.67 699,-88.67 699,-84.83 702.83,-81 706.67,-81 706.67,-81 832.33,-81 832.33,-81 836.17,-81 840,-84.83 840,-88.67 840,-88.67 840,-96.33 840,-96.33 840,-100.17 836.17,-104 832.33,-104"/>
<text text-anchor="middle" x="769.5" y="-88.8" font-family="Arial" font-size="14.00" fill="#cfffac">api/definitions/utils.ts</text>
</g>
<!-- api/definitions/model.ts&#45;&gt;api/definitions/utils.ts -->
<g id="edge15" class="edge">
<title>api/definitions/model.ts&#45;&gt;api/definitions/utils.ts</title>
<path fill="none" stroke="#757575" d="M607.57,-64.02C634.39,-68.76 665.65,-74.3 693.44,-79.21"/>
<polygon fill="#757575" stroke="#757575" points="693.05,-82.7 703.5,-81 694.27,-75.81 693.05,-82.7"/>
</g>
<!-- api/definitions/routes.ts -->
<g id="node19" class="node">
<title>api/definitions/routes.ts</title>
<path fill="none" stroke="#c6c5fe" d="M362.83,-113C362.83,-113 223.17,-113 223.17,-113 219.33,-113 215.5,-109.17 215.5,-105.33 215.5,-105.33 215.5,-97.67 215.5,-97.67 215.5,-93.83 219.33,-90 223.17,-90 223.17,-90 362.83,-90 362.83,-90 366.67,-90 370.5,-93.83 370.5,-97.67 370.5,-97.67 370.5,-105.33 370.5,-105.33 370.5,-109.17 366.67,-113 362.83,-113"/>
<text text-anchor="middle" x="293" y="-97.8" font-family="Arial" font-size="14.00" fill="#c6c5fe">api/definitions/routes.ts</text>
</g>
<!-- api/definitions/routes.ts&#45;&gt;api/definitions/model.ts -->
<g id="edge17" class="edge">
<title>api/definitions/routes.ts&#45;&gt;api/definitions/model.ts</title>
<path fill="none" stroke="#757575" d="M351.51,-89.96C366.34,-86.93 382.27,-83.64 397,-80.5 413.03,-77.08 416.94,-75.78 433,-72.5 443.86,-70.28 455.36,-68.04 466.64,-65.89"/>
<polygon fill="#757575" stroke="#757575" points="467.3,-69.33 476.48,-64.03 466,-62.45 467.3,-69.33"/>
</g>
<!-- api/game/model.ts -->
<g id="node20" class="node">
<title>api/game/model.ts</title>
<path fill="none" stroke="#c6c5fe" d="M1049.33,-645C1049.33,-645 936.67,-645 936.67,-645 932.83,-645 929,-641.17 929,-637.33 929,-637.33 929,-629.67 929,-629.67 929,-625.83 932.83,-622 936.67,-622 936.67,-622 1049.33,-622 1049.33,-622 1053.17,-622 1057,-625.83 1057,-629.67 1057,-629.67 1057,-637.33 1057,-637.33 1057,-641.17 1053.17,-645 1049.33,-645"/>
<text text-anchor="middle" x="993" y="-629.8" font-family="Arial" font-size="14.00" fill="#c6c5fe">api/game/model.ts</text>
</g>
<!-- api/game/model.ts&#45;&gt;dbConfig.ts -->
<g id="edge18" class="edge">
<title>api/game/model.ts&#45;&gt;dbConfig.ts</title>
<path fill="none" stroke="#757575" d="M1051.64,-621.95C1068.17,-616.14 1084.96,-607.46 1097,-594.5 1161.48,-525.11 1172.5,-404.43 1174.25,-355.27"/>
<polygon fill="#757575" stroke="#757575" points="1177.75,-355.23 1174.51,-345.15 1170.75,-355.05 1177.75,-355.23"/>
</g>
<!-- api/game/routes.ts -->
<g id="node21" class="node">
<title>api/game/routes.ts</title>
<path fill="none" stroke="#c6c5fe" d="M349.33,-651C349.33,-651 236.67,-651 236.67,-651 232.83,-651 229,-647.17 229,-643.33 229,-643.33 229,-635.67 229,-635.67 229,-631.83 232.83,-628 236.67,-628 236.67,-628 349.33,-628 349.33,-628 353.17,-628 357,-631.83 357,-635.67 357,-635.67 357,-643.33 357,-643.33 357,-647.17 353.17,-651 349.33,-651"/>
<text text-anchor="middle" x="293" y="-635.8" font-family="Arial" font-size="14.00" fill="#c6c5fe">api/game/routes.ts</text>
</g>
<!-- api/game/routes.ts&#45;&gt;api/game/model.ts -->
<g id="edge19" class="edge">
<title>api/game/routes.ts&#45;&gt;api/game/model.ts</title>
<path fill="none" stroke="#757575" d="M357.17,-638.96C486.66,-637.84 781.51,-635.31 918.95,-634.13"/>
<polygon fill="#757575" stroke="#757575" points="919,-637.63 928.97,-634.04 918.94,-630.63 919,-637.63"/>
</g>
<!-- api/played/model.ts&#45;&gt;dbConfig.ts -->
<g id="edge20" class="edge">
<title>api/played/model.ts&#45;&gt;dbConfig.ts</title>
<path fill="none" stroke="#757575" d="M1060.19,-333.5C1080.83,-333.5 1103.28,-333.5 1122.77,-333.5"/>
<polygon fill="#757575" stroke="#757575" points="1122.97,-337 1132.97,-333.5 1122.97,-330 1122.97,-337"/>
</g>
<!-- api/played/routes.ts -->
<g id="node23" class="node">
<title>api/played/routes.ts</title>
<path fill="none" stroke="#c6c5fe" d="M828.83,-345C828.83,-345 710.17,-345 710.17,-345 706.33,-345 702.5,-341.17 702.5,-337.33 702.5,-337.33 702.5,-329.67 702.5,-329.67 702.5,-325.83 706.33,-322 710.17,-322 710.17,-322 828.83,-322 828.83,-322 832.67,-322 836.5,-325.83 836.5,-329.67 836.5,-329.67 836.5,-337.33 836.5,-337.33 836.5,-341.17 832.67,-345 828.83,-345"/>
<text text-anchor="middle" x="769.5" y="-329.8" font-family="Arial" font-size="14.00" fill="#c6c5fe">api/played/routes.ts</text>
</g>
<!-- api/played/routes.ts&#45;&gt;api/played/model.ts -->
<g id="edge21" class="edge">
<title>api/played/routes.ts&#45;&gt;api/played/model.ts</title>
<path fill="none" stroke="#757575" d="M836.66,-333.5C861.53,-333.5 890,-333.5 915.72,-333.5"/>
<polygon fill="#757575" stroke="#757575" points="915.8,-337 925.8,-333.5 915.8,-330 915.8,-337"/>
</g>
<!-- api/player/routes.ts -->
<g id="node25" class="node">
<title>api/player/routes.ts</title>
<path fill="none" stroke="#c6c5fe" d="M599.33,-580C599.33,-580 483.67,-580 483.67,-580 479.83,-580 476,-576.17 476,-572.33 476,-572.33 476,-564.67 476,-564.67 476,-560.83 479.83,-557 483.67,-557 483.67,-557 599.33,-557 599.33,-557 603.17,-557 607,-560.83 607,-564.67 607,-564.67 607,-572.33 607,-572.33 607,-576.17 603.17,-580 599.33,-580"/>
<text text-anchor="middle" x="541.5" y="-564.8" font-family="Arial" font-size="14.00" fill="#c6c5fe">api/player/routes.ts</text>
</g>
<!-- api/player/routes.ts&#45;&gt;api/player/model.ts -->
<g id="edge24" class="edge">
<title>api/player/routes.ts&#45;&gt;api/player/model.ts</title>
<path fill="none" stroke="#757575" d="M607.26,-557.04C634.21,-552.27 665.67,-546.7 693.61,-541.75"/>
<polygon fill="#757575" stroke="#757575" points="694.49,-545.15 703.73,-539.96 693.27,-538.26 694.49,-545.15"/>
</g>
<!-- api/reactions/model.ts -->
<g id="node26" class="node">
<title>api/reactions/model.ts</title>
<path fill="none" stroke="#c6c5fe" d="M836.33,-601C836.33,-601 702.67,-601 702.67,-601 698.83,-601 695,-597.17 695,-593.33 695,-593.33 695,-585.67 695,-585.67 695,-581.83 698.83,-578 702.67,-578 702.67,-578 836.33,-578 836.33,-578 840.17,-578 844,-581.83 844,-585.67 844,-585.67 844,-593.33 844,-593.33 844,-597.17 840.17,-601 836.33,-601"/>
<text text-anchor="middle" x="769.5" y="-585.8" font-family="Arial" font-size="14.00" fill="#c6c5fe">api/reactions/model.ts</text>
</g>
<!-- api/reactions/model.ts&#45;&gt;dbConfig.ts -->
<g id="edge25" class="edge">
<title>api/reactions/model.ts&#45;&gt;dbConfig.ts</title>
<path fill="none" stroke="#757575" d="M844.04,-600.65C916.28,-607.34 1025.74,-605.52 1097,-548.5 1157.7,-499.92 1170.88,-399.75 1173.73,-355.43"/>
<polygon fill="#757575" stroke="#757575" points="1177.24,-355.36 1174.26,-345.19 1170.25,-355 1177.24,-355.36"/>
</g>
<!-- api/reactions/routes.ts -->
<g id="node27" class="node">
<title>api/reactions/routes.ts</title>
<path fill="none" stroke="#c6c5fe" d="M359.83,-603C359.83,-603 226.17,-603 226.17,-603 222.33,-603 218.5,-599.17 218.5,-595.33 218.5,-595.33 218.5,-587.67 218.5,-587.67 218.5,-583.83 222.33,-580 226.17,-580 226.17,-580 359.83,-580 359.83,-580 363.67,-580 367.5,-583.83 367.5,-587.67 367.5,-587.67 367.5,-595.33 367.5,-595.33 367.5,-599.17 363.67,-603 359.83,-603"/>
<text text-anchor="middle" x="293" y="-587.8" font-family="Arial" font-size="14.00" fill="#c6c5fe">api/reactions/routes.ts</text>
</g>
<!-- api/reactions/routes.ts&#45;&gt;api/reactions/model.ts -->
<g id="edge26" class="edge">
<title>api/reactions/routes.ts&#45;&gt;api/reactions/model.ts</title>
<path fill="none" stroke="#757575" d="M367.62,-591.19C453.34,-590.83 594.63,-590.23 684.55,-589.85"/>
<polygon fill="#757575" stroke="#757575" points="684.72,-593.35 694.71,-589.81 684.69,-586.35 684.72,-593.35"/>
</g>
<!-- api/rounds/routes.ts -->
<g id="node29" class="node">
<title>api/rounds/routes.ts</title>
<path fill="none" stroke="#c6c5fe" d="M601.33,-421C601.33,-421 481.67,-421 481.67,-421 477.83,-421 474,-417.17 474,-413.33 474,-413.33 474,-405.67 474,-405.67 474,-401.83 477.83,-398 481.67,-398 481.67,-398 601.33,-398 601.33,-398 605.17,-398 609,-401.83 609,-405.67 609,-405.67 609,-413.33 609,-413.33 609,-417.17 605.17,-421 601.33,-421"/>
<text text-anchor="middle" x="541.5" y="-405.8" font-family="Arial" font-size="14.00" fill="#c6c5fe">api/rounds/routes.ts</text>
</g>
<!-- api/rounds/routes.ts&#45;&gt;api/rounds/model.ts -->
<g id="edge29" class="edge">
<title>api/rounds/routes.ts&#45;&gt;api/rounds/model.ts</title>
<path fill="none" stroke="#757575" d="M609.09,-413.62C634.95,-415.23 664.73,-417.07 691.51,-418.73"/>
<polygon fill="#757575" stroke="#757575" points="691.41,-422.23 701.61,-419.36 691.85,-415.24 691.41,-422.23"/>
</g>
<!-- api/userRounds/routes.ts -->
<g id="node30" class="node">
<title>api/userRounds/routes.ts</title>
<path fill="none" stroke="#c6c5fe" d="M368.83,-383C368.83,-383 217.17,-383 217.17,-383 213.33,-383 209.5,-379.17 209.5,-375.33 209.5,-375.33 209.5,-367.67 209.5,-367.67 209.5,-363.83 213.33,-360 217.17,-360 217.17,-360 368.83,-360 368.83,-360 372.67,-360 376.5,-363.83 376.5,-367.67 376.5,-367.67 376.5,-375.33 376.5,-375.33 376.5,-379.17 372.67,-383 368.83,-383"/>
<text text-anchor="middle" x="293" y="-367.8" font-family="Arial" font-size="14.00" fill="#c6c5fe">api/userRounds/routes.ts</text>
</g>
<!-- api/userRounds/routes.ts&#45;&gt;api/userRounds/model.ts -->
<g id="edge32" class="edge">
<title>api/userRounds/routes.ts&#45;&gt;api/userRounds/model.ts</title>
<path fill="none" stroke="#757575" d="M376.65,-372.02C460.04,-372.55 588.57,-373.36 675.48,-373.91"/>
<polygon fill="#757575" stroke="#757575" points="675.58,-377.41 685.6,-373.98 675.62,-370.41 675.58,-377.41"/>
</g>
<!-- api/votes/model.ts -->
<g id="node31" class="node">
<title>api/votes/model.ts</title>
<path fill="none" stroke="#c6c5fe" d="M596.83,-185C596.83,-185 486.17,-185 486.17,-185 482.33,-185 478.5,-181.17 478.5,-177.33 478.5,-177.33 478.5,-169.67 478.5,-169.67 478.5,-165.83 482.33,-162 486.17,-162 486.17,-162 596.83,-162 596.83,-162 600.67,-162 604.5,-165.83 604.5,-169.67 604.5,-169.67 604.5,-177.33 604.5,-177.33 604.5,-181.17 600.67,-185 596.83,-185"/>
<text text-anchor="middle" x="541.5" y="-169.8" font-family="Arial" font-size="14.00" fill="#c6c5fe">api/votes/model.ts</text>
</g>
<!-- api/votes/model.ts&#45;&gt;dbConfig.ts -->
<g id="edge34" class="edge">
<title>api/votes/model.ts&#45;&gt;dbConfig.ts</title>
<path fill="none" stroke="#757575" d="M604.84,-163.66C713.45,-149.83 940.72,-135.94 1097,-230.5 1129.33,-250.06 1152.73,-288.64 1164.92,-312.63"/>
<polygon fill="#757575" stroke="#757575" points="1161.92,-314.46 1169.44,-321.92 1168.21,-311.4 1161.92,-314.46"/>
</g>
<!-- api/votes/utils.ts -->
<g id="node32" class="node">
<title>api/votes/utils.ts</title>
<path fill="none" stroke="#cfffac" d="M818.33,-223C818.33,-223 720.67,-223 720.67,-223 716.83,-223 713,-219.17 713,-215.33 713,-215.33 713,-207.67 713,-207.67 713,-203.83 716.83,-200 720.67,-200 720.67,-200 818.33,-200 818.33,-200 822.17,-200 826,-203.83 826,-207.67 826,-207.67 826,-215.33 826,-215.33 826,-219.17 822.17,-223 818.33,-223"/>
<text text-anchor="middle" x="769.5" y="-207.8" font-family="Arial" font-size="14.00" fill="#cfffac">api/votes/utils.ts</text>
</g>
<!-- api/votes/model.ts&#45;&gt;api/votes/utils.ts -->
<g id="edge33" class="edge">
<title>api/votes/model.ts&#45;&gt;api/votes/utils.ts</title>
<path fill="none" stroke="#757575" d="M604.55,-183.93C634.96,-189.05 671.59,-195.21 702.51,-200.4"/>
<polygon fill="#757575" stroke="#757575" points="702.32,-203.92 712.76,-202.13 703.48,-197.02 702.32,-203.92"/>
</g>
<!-- api/votes/routes.ts -->
<g id="node33" class="node">
<title>api/votes/routes.ts</title>
<path fill="none" stroke="#c6c5fe" d="M348.33,-212C348.33,-212 237.67,-212 237.67,-212 233.83,-212 230,-208.17 230,-204.33 230,-204.33 230,-196.67 230,-196.67 230,-192.83 233.83,-189 237.67,-189 237.67,-189 348.33,-189 348.33,-189 352.17,-189 356,-192.83 356,-196.67 356,-196.67 356,-204.33 356,-204.33 356,-208.17 352.17,-212 348.33,-212"/>
<text text-anchor="middle" x="293" y="-196.8" font-family="Arial" font-size="14.00" fill="#c6c5fe">api/votes/routes.ts</text>
</g>
<!-- api/votes/routes.ts&#45;&gt;api/votes/model.ts -->
<g id="edge35" class="edge">
<title>api/votes/routes.ts&#45;&gt;api/votes/model.ts</title>
<path fill="none" stroke="#757575" d="M356.2,-193.69C390.21,-189.96 432.52,-185.33 468.02,-181.44"/>
<polygon fill="#757575" stroke="#757575" points="468.76,-184.88 478.32,-180.31 468,-177.92 468.76,-184.88"/>
</g>
<!-- api/words/model.ts -->
<g id="node34" class="node">
<title>api/words/model.ts</title>
<path fill="none" stroke="#c6c5fe" d="M1050.33,-304C1050.33,-304 935.67,-304 935.67,-304 931.83,-304 928,-300.17 928,-296.33 928,-296.33 928,-288.67 928,-288.67 928,-284.83 931.83,-281 935.67,-281 935.67,-281 1050.33,-281 1050.33,-281 1054.17,-281 1058,-284.83 1058,-288.67 1058,-288.67 1058,-296.33 1058,-296.33 1058,-300.17 1054.17,-304 1050.33,-304"/>
<text text-anchor="middle" x="993" y="-288.8" font-family="Arial" font-size="14.00" fill="#c6c5fe">api/words/model.ts</text>
</g>
<!-- api/words/model.ts&#45;&gt;dbConfig.ts -->
<g id="edge36" class="edge">
<title>api/words/model.ts&#45;&gt;dbConfig.ts</title>
<path fill="none" stroke="#757575" d="M1053.21,-304.03C1067.57,-306.98 1082.86,-310.24 1097,-313.5 1105.37,-315.43 1114.22,-317.6 1122.82,-319.77"/>
<polygon fill="#757575" stroke="#757575" points="1122.21,-323.23 1132.77,-322.31 1123.94,-316.44 1122.21,-323.23"/>
</g>
<!-- api/words/routes.ts -->
<g id="node35" class="node">
<title>api/words/routes.ts</title>
<path fill="none" stroke="#c6c5fe" d="M350.33,-303C350.33,-303 235.67,-303 235.67,-303 231.83,-303 228,-299.17 228,-295.33 228,-295.33 228,-287.67 228,-287.67 228,-283.83 231.83,-280 235.67,-280 235.67,-280 350.33,-280 350.33,-280 354.17,-280 358,-283.83 358,-287.67 358,-287.67 358,-295.33 358,-295.33 358,-299.17 354.17,-303 350.33,-303"/>
<text text-anchor="middle" x="293" y="-287.8" font-family="Arial" font-size="14.00" fill="#c6c5fe">api/words/routes.ts</text>
</g>
<!-- api/words/routes.ts&#45;&gt;api/words/utils.ts -->
<g id="edge38" class="edge">
<title>api/words/routes.ts&#45;&gt;api/words/utils.ts</title>
<path fill="none" stroke="#757575" d="M358.12,-281.62C393.59,-276.15 437.62,-269.36 473.53,-263.82"/>
<polygon fill="#757575" stroke="#757575" points="474.08,-267.28 483.43,-262.3 473.01,-260.36 474.08,-267.28"/>
</g>
<!-- api/words/routes.ts&#45;&gt;api/words/model.ts -->
<g id="edge37" class="edge">
<title>api/words/routes.ts&#45;&gt;api/words/model.ts</title>
<path fill="none" stroke="#757575" d="M358.1,-291.59C487.73,-291.78 780.33,-292.2 917.89,-292.39"/>
<polygon fill="#757575" stroke="#757575" points="917.92,-295.89 927.92,-292.41 917.93,-288.89 917.92,-295.89"/>
</g>
<!-- app.ts -->
<g id="node36" class="node">
<title>app.ts</title>
<path fill="none" stroke="#c6c5fe" d="M145.33,-323C145.33,-323 106.67,-323 106.67,-323 102.83,-323 99,-319.17 99,-315.33 99,-315.33 99,-307.67 99,-307.67 99,-303.83 102.83,-300 106.67,-300 106.67,-300 145.33,-300 145.33,-300 149.17,-300 153,-303.83 153,-307.67 153,-307.67 153,-315.33 153,-315.33 153,-319.17 149.17,-323 145.33,-323"/>
<text text-anchor="middle" x="126" y="-307.8" font-family="Arial" font-size="14.00" fill="#c6c5fe">app.ts</text>
</g>
<!-- app.ts&#45;&gt;api/admin/routes.ts -->
<g id="edge39" class="edge">
<title>app.ts&#45;&gt;api/admin/routes.ts</title>
<path fill="none" stroke="#757575" d="M141.35,-299.62C153.36,-290.3 171.32,-277.73 189,-270.5 198.04,-266.8 207.82,-263.78 217.62,-261.31"/>
<polygon fill="#757575" stroke="#757575" points="218.46,-264.7 227.4,-259.01 216.87,-257.89 218.46,-264.7"/>
</g>
<!-- app.ts&#45;&gt;api/auth/routes.ts -->
<g id="edge40" class="edge">
<title>app.ts&#45;&gt;api/auth/routes.ts</title>
<path fill="none" stroke="#757575" d="M130.48,-323.12C137.79,-345.72 156.79,-395.96 189,-425.5 203.32,-438.63 222.08,-448.36 239.66,-455.34"/>
<polygon fill="#757575" stroke="#757575" points="238.68,-458.71 249.27,-458.94 241.13,-452.15 238.68,-458.71"/>
</g>
<!-- app.ts&#45;&gt;api/clever/routes.ts -->
<g id="edge41" class="edge">
<title>app.ts&#45;&gt;api/clever/routes.ts</title>
<path fill="none" stroke="#757575" d="M128.5,-299.78C134.21,-257.17 155.89,-111.36 189,-80.5 197.11,-72.94 207.19,-67.85 217.84,-64.47"/>
<polygon fill="#757575" stroke="#757575" points="218.98,-67.79 227.74,-61.83 217.17,-61.02 218.98,-67.79"/>
</g>
<!-- app.ts&#45;&gt;api/definitionReactions/routes.ts -->
<g id="edge42" class="edge">
<title>app.ts&#45;&gt;api/definitionReactions/routes.ts</title>
<path fill="none" stroke="#757575" d="M129.31,-299.83C134.94,-274.36 151.73,-213.41 189,-179.5 199.46,-169.98 212.55,-162.87 225.84,-157.57"/>
<polygon fill="#757575" stroke="#757575" points="227.35,-160.75 235.53,-154.02 224.94,-154.18 227.35,-160.75"/>
</g>
<!-- app.ts&#45;&gt;api/definitions/routes.ts -->
<g id="edge43" class="edge">
<title>app.ts&#45;&gt;api/definitions/routes.ts</title>
<path fill="none" stroke="#757575" d="M127,-299.97C127.65,-266.69 134.39,-169.74 189,-121.5 194.09,-117 199.88,-113.39 206.07,-110.5"/>
<polygon fill="#757575" stroke="#757575" points="207.39,-113.74 215.37,-106.77 204.78,-107.25 207.39,-113.74"/>
</g>
<!-- app.ts&#45;&gt;api/game/routes.ts -->
<g id="edge44" class="edge">
<title>app.ts&#45;&gt;api/game/routes.ts</title>
<path fill="none" stroke="#757575" d="M127.78,-323.06C131.4,-372.97 148.07,-569.33 189,-612.5 197.25,-621.2 207.93,-627.22 219.27,-631.37"/>
<polygon fill="#757575" stroke="#757575" points="218.33,-634.74 228.92,-634.43 220.45,-628.07 218.33,-634.74"/>
</g>
<!-- app.ts&#45;&gt;api/played/routes.ts -->
<g id="edge45" class="edge">
<title>app.ts&#45;&gt;api/played/routes.ts</title>
<path fill="none" stroke="#757575" d="M153.34,-312.4C244.52,-315.53 548.91,-325.97 692.41,-330.89"/>
<polygon fill="#757575" stroke="#757575" points="692.34,-334.39 702.46,-331.24 692.58,-327.39 692.34,-334.39"/>
</g>
<!-- app.ts&#45;&gt;api/player/routes.ts -->
<g id="edge46" class="edge">
<title>app.ts&#45;&gt;api/player/routes.ts</title>
<path fill="none" stroke="#757575" d="M127.31,-323.29C128.81,-355.53 137.65,-445.79 189,-491.5 265.14,-559.28 387.02,-571.94 465.4,-572.2"/>
<polygon fill="#757575" stroke="#757575" points="465.7,-575.7 475.69,-572.17 465.68,-568.7 465.7,-575.7"/>
</g>
<!-- app.ts&#45;&gt;api/reactions/routes.ts -->
<g id="edge47" class="edge">
<title>app.ts&#45;&gt;api/reactions/routes.ts</title>
<path fill="none" stroke="#757575" d="M126.52,-323.2C125.6,-361.2 127.82,-482.66 189,-551.5 198.73,-562.45 211.83,-570.43 225.41,-576.23"/>
<polygon fill="#757575" stroke="#757575" points="224.27,-579.54 234.85,-579.91 226.81,-573.02 224.27,-579.54"/>
</g>
<!-- app.ts&#45;&gt;api/rounds/routes.ts -->
<g id="edge48" class="edge">
<title>app.ts&#45;&gt;api/rounds/routes.ts</title>
<path fill="none" stroke="#757575" d="M131.97,-323.22C140.53,-341.76 159.98,-377.29 189,-392.5 277.76,-439.04 397.09,-432.92 471.37,-422.51"/>
<polygon fill="#757575" stroke="#757575" points="472.16,-425.93 481.54,-421.02 471.14,-419.01 472.16,-425.93"/>
</g>
<!-- app.ts&#45;&gt;api/userRounds/routes.ts -->
<g id="edge49" class="edge">
<title>app.ts&#45;&gt;api/userRounds/routes.ts</title>
<path fill="none" stroke="#757575" d="M145.12,-323.04C157.18,-330.31 173.58,-339.44 189,-345.5 200.58,-350.05 213.21,-354.01 225.53,-357.37"/>
<polygon fill="#757575" stroke="#757575" points="224.76,-360.79 235.32,-359.94 226.54,-354.02 224.76,-360.79"/>
</g>
<!-- app.ts&#45;&gt;api/votes/routes.ts -->
<g id="edge50" class="edge">
<title>app.ts&#45;&gt;api/votes/routes.ts</title>
<path fill="none" stroke="#757575" d="M132.67,-299.79C141.93,-281.9 162.02,-247.91 189,-229.5 198.38,-223.1 209.14,-218.1 220.1,-214.21"/>
<polygon fill="#757575" stroke="#757575" points="221.34,-217.48 229.76,-211.05 219.16,-210.83 221.34,-217.48"/>
</g>
<!-- app.ts&#45;&gt;api/words/routes.ts -->
<g id="edge51" class="edge">
<title>app.ts&#45;&gt;api/words/routes.ts</title>
<path fill="none" stroke="#757575" d="M153.14,-308.33C170.64,-306.21 194.61,-303.31 217.71,-300.5"/>
<polygon fill="#757575" stroke="#757575" points="218.38,-303.95 227.88,-299.27 217.54,-297 218.38,-303.95"/>
</g>
<!-- logger.ts -->
<g id="node37" class="node">
<title>logger.ts</title>
<path fill="none" stroke="#cfffac" d="M319.33,-31C319.33,-31 266.67,-31 266.67,-31 262.83,-31 259,-27.17 259,-23.33 259,-23.33 259,-15.67 259,-15.67 259,-11.83 262.83,-8 266.67,-8 266.67,-8 319.33,-8 319.33,-8 323.17,-8 327,-11.83 327,-15.67 327,-15.67 327,-23.33 327,-23.33 327,-27.17 323.17,-31 319.33,-31"/>
<text text-anchor="middle" x="293" y="-15.8" font-family="Arial" font-size="14.00" fill="#cfffac">logger.ts</text>
</g>
<!-- app.ts&#45;&gt;logger.ts -->
<g id="edge52" class="edge">
<title>app.ts&#45;&gt;logger.ts</title>
<path fill="none" stroke="#757575" d="M128,-299.73C132.28,-252.39 150.55,-76.73 189,-39.5 204.56,-24.43 227.89,-19.05 248.41,-17.6"/>
<polygon fill="#757575" stroke="#757575" points="248.68,-21.09 258.52,-17.18 248.38,-14.1 248.68,-21.09"/>
</g>
<!-- index.ts -->
<g id="node38" class="node">
<title>index.ts</title>
<path fill="none" stroke="#c6c5fe" d="M55.33,-323C55.33,-323 7.67,-323 7.67,-323 3.83,-323 0,-319.17 0,-315.33 0,-315.33 0,-307.67 0,-307.67 0,-303.83 3.83,-300 7.67,-300 7.67,-300 55.33,-300 55.33,-300 59.17,-300 63,-303.83 63,-307.67 63,-307.67 63,-315.33 63,-315.33 63,-319.17 59.17,-323 55.33,-323"/>
<text text-anchor="middle" x="31.5" y="-307.8" font-family="Arial" font-size="14.00" fill="#c6c5fe">index.ts</text>
</g>
<!-- index.ts&#45;&gt;app.ts -->
<g id="edge54" class="edge">
<title>index.ts&#45;&gt;app.ts</title>
<path fill="none" stroke="#757575" d="M63.04,-311.5C71.27,-311.5 80.26,-311.5 88.77,-311.5"/>
<polygon fill="#757575" stroke="#757575" points="88.83,-315 98.83,-311.5 88.83,-308 88.83,-315"/>
</g>
</g>
</svg>
